<svg xmlns="http://www.w3.org/2000/svg" xmlns:xlink="http://www.w3.org/1999/xlink" width="1170" height="570" viewBox="0 0 1170 570">
  <defs>
    <clipPath id="clip-path">
      <path id="Path_139" data-name="Path 139" d="M556.839,589.769c6.93-41.92,25.552-123.324,63.637-103.585,24.266,12.576,37.017,65.191,43.716,116.7,0,0-44.174-.336-58.75-2.228C593.094,599.052,556.839,589.769,556.839,589.769Z" transform="translate(-556.839 -483.149)" fill="#fff"/>
    </clipPath>
  </defs>
  <g id="Group_218" data-name="Group 218" transform="translate(-388 -199)">
    <rect id="Rectangle_1" data-name="Rectangle 1" width="1170" height="570" rx="3" transform="translate(388 199)" fill="none"/>
    <g id="Group_217" data-name="Group 217" transform="translate(446.563 55.589)">
      <g id="Group_1" data-name="Group 1" transform="translate(100.437 143.411)">
        <path id="Path_1" data-name="Path 1" d="M320.5,703.747c-18.071-2.9-235.2-29.035-219.218-221.785s36.045-250.715,120.462-271.922S511.359,88.483,672.382,183.9s334.78,181,265.828,333.35-80.242,203.175-260.143,195.4S406.427,717.544,320.5,703.747Z" transform="translate(-100.437 -143.411)" fill="#f7fbfc"/>
      </g>
      <g id="Group_14" data-name="Group 14" transform="translate(367.113 555.021)">
        <g id="Group_2" data-name="Group 2" transform="translate(3.145 6.584)">
          <path id="Path_2" data-name="Path 2" d="M781.139,841.417,685.4,804.958l4.039-1.919c12.815-7.012,20.342-15.526,20.342-24.7,0-23.9-51.061-43.344-113.823-43.344s-113.822,19.444-113.822,43.344,51.061,43.345,113.822,43.345c28.165,0,53.966-3.919,73.86-10.4l95.22,36.26a26.154,26.154,0,0,0,16.1,0C785.586,845.856,785.586,843.111,781.139,841.417Zm-185.184-29.1c-49.2,0-89.232-15.244-89.232-33.98s40.029-33.98,89.232-33.98,89.232,15.244,89.232,33.98S645.157,812.322,595.954,812.322Z" transform="translate(-482.132 -734.997)" fill="#def3f9"/>
        </g>
        <g id="Group_7" data-name="Group 7" transform="translate(0.017)">
          <g id="Group_3" data-name="Group 3" transform="translate(1.008 0.929)">
            <path id="Path_3" data-name="Path 3" d="M778.139,833.417,682.4,796.958l4.039-1.919c12.815-7.012,20.342-15.526,20.342-24.7,0-23.9-51.061-43.344-113.823-43.344s-113.822,19.444-113.822,43.344,51.061,43.344,113.822,43.344c28.165,0,53.966-3.919,73.86-10.4l95.22,36.26a26.155,26.155,0,0,0,16.1,0C782.586,837.856,782.586,835.111,778.139,833.417ZM503.722,770.341c0-18.736,40.029-33.98,89.232-33.98s89.232,15.244,89.232,33.98-40.03,33.98-89.232,33.98S503.722,789.078,503.722,770.341Z" transform="translate(-479.132 -726.997)" fill="#fff"/>
          </g>
          <g id="Group_6" data-name="Group 6">
            <g id="Group_4" data-name="Group 4">
              <path id="Path_4" data-name="Path 4" d="M778.306,832.318l-83.862-31.935-11.881-4.524q-.061.675-.122,1.352c9.477-4.5,20.388-11.018,23.964-21.545,2.514-7.4-.246-14.684-5.286-20.259-6.348-7.023-15.132-11.666-23.754-15.282-12.381-5.191-25.583-8.426-38.8-10.64a278.287,278.287,0,0,0-95.289.628c-12.8,2.341-25.552,5.686-37.475,10.963-8.32,3.682-16.892,8.46-22.759,15.595-4.282,5.208-6.608,11.85-4.621,18.5,2.2,7.353,8.463,12.891,14.654,16.98,9.657,6.379,20.8,10.457,31.892,13.541a233.023,233.023,0,0,0,44.153,7.485c31.418,2.473,64.26.611,94.541-8.618,2.3-.7,1.936-1.024,4-.237l5.692,2.167,19.91,7.582,49.418,18.818c10.668,4.063,24.534,11.9,36,6.685,4.555-2.071,3.915-5.387-.387-7.262-.9-.393-2.373.9-1.17,1.429,1.947.848,2.989,1.045,1.878,3.025-.85,1.514-1.326,1.66-3.016,2.136a23.1,23.1,0,0,1-6.248.745,23.44,23.44,0,0,1-7.672-1.249c-.921-.317-1.827-.695-2.737-1.042l-14.429-5.495-45.546-17.345c-10.463-3.984-20.862-8.4-31.471-11.984-1.735-.586-2.695-.035-4.624.553a192.82,192.82,0,0,1-19.181,4.726,265.162,265.162,0,0,1-46.05,4.652c-28.427.511-58.15-2.335-84.931-12.428-12.865-4.849-35.757-15.271-33.169-32.643,1.1-7.413,6.994-13.147,12.818-17.3,8.965-6.4,19.576-10.465,30.063-13.584,28.284-8.41,58.72-10.392,88.06-8.539,25.248,1.595,52.568,5.724,74.97,18.231,6.994,3.905,14.426,9.148,17.845,16.672,4.491,9.885-1.558,19.29-9.341,25.415a66.52,66.52,0,0,1-12.837,7.647c-.573.272-.854,1.073-.122,1.352l83.861,31.935,11.881,4.524C778.05,834.095,779.529,832.783,778.306,832.318Z" transform="translate(-477.707 -725.683)" fill="#6a79a8"/>
            </g>
            <g id="Group_5" data-name="Group 5" transform="translate(24.557 9.475)">
              <path id="Path_5" data-name="Path 5" d="M514.526,773.815c.184-9.64,9.856-15.94,17.542-19.8,12.888-6.47,27.473-9.646,41.684-11.5a224,224,0,0,1,52.718-.576c14.87,1.59,30,4.547,43.708,10.7,7.923,3.557,18.295,9.271,20.409,18.54,2.066,9.059-6.087,16.114-13.01,20.271-12.034,7.226-26.349,10.736-40.077,12.957a220.873,220.873,0,0,1-52.4,1.991c-16.631-1.3-33.672-4.2-49.046-10.915-8.739-3.817-21.321-10.628-21.532-21.668-.021-1.107-2.1-.826-2.08.138.179,9.372,8.729,15.809,16.211,19.911,12.965,7.108,27.955,10.553,42.481,12.627a224.924,224.924,0,0,0,56.8.765c15.268-1.723,30.882-4.868,44.844-11.494,7.927-3.762,17.786-9.681,19.865-18.967,1.985-8.863-5.131-16.069-11.908-20.521-11.7-7.682-25.965-11.431-39.584-13.89a221.1,221.1,0,0,0-56.319-2.571c-17.689,1.382-36.039,4.53-52.188,12.194-8.652,4.106-20,11.1-20.206,21.946C512.425,775.058,514.508,774.786,514.526,773.815Z" transform="translate(-512.446 -739.086)" fill="#6a79a8"/>
            </g>
          </g>
        </g>
        <g id="Group_9" data-name="Group 9" transform="translate(198.592 90.233)">
          <g id="Group_8" data-name="Group 8">
            <path id="Path_6" data-name="Path 6" d="M758.63,854.058l82.592,31.452a27.97,27.97,0,0,0,8.869,1.982c2.524.107,16.737-.717,13.944-6.114-.256-.494-2.21.237-2.049.549,2.731,5.274-12.044,4.887-15.133,4.135a22.853,22.853,0,0,1-2.475-.781c-1.558-.571-3.1-1.181-4.653-1.771l-19.057-7.257L772.29,857.83l-11.729-4.466c-.561-.214-2.111.626-1.931.694Z" transform="translate(-758.616 -853.329)" fill="#6a79a8"/>
          </g>
        </g>
        <g id="Group_11" data-name="Group 11" transform="translate(69.901 18.79)">
          <g id="Group_10" data-name="Group 10">
            <path id="Path_7" data-name="Path 7" d="M577.7,758.075a215.5,215.5,0,0,1,71.061-2.7c17.627,2.191,37.344,6.174,51.87,17.08.65.488,2.488-.442,1.6-1.111-14.772-11.09-34.8-15.107-52.726-17.335a218.745,218.745,0,0,0-72.141,2.806c-1.273.271-.921,1.529.338,1.261Z" transform="translate(-576.567 -752.264)" fill="#6a79a8"/>
          </g>
        </g>
        <g id="Group_13" data-name="Group 13" transform="translate(0 51.353)">
          <g id="Group_12" data-name="Group 12">
            <path id="Path_8" data-name="Path 8" d="M477.683,799.1c.117,7.872,5.457,14.231,11.366,18.874,8.894,6.99,19.8,11.385,30.506,14.73,30.624,9.571,63.976,11.542,95.818,9.1,17.623-1.349,35.236-4.222,52.095-9.622,1.176-.377.99-1.214-.221-.826-31.209,10-65.243,12.006-97.75,9.343a229.257,229.257,0,0,1-44.449-7.74c-10.995-3.152-22.11-7.287-31.553-13.869-6.884-4.8-13.63-11.626-13.763-20.543-.008-.487-2.059-.139-2.049.548Z" transform="translate(-477.683 -798.328)" fill="#6a79a8"/>
          </g>
        </g>
      </g>
      <g id="Group_209" data-name="Group 209" transform="translate(415.542 309.09)">
        <g id="Group_15" data-name="Group 15" transform="translate(1.039 181.103)">
          <path id="Path_9" data-name="Path 9" d="M661.5,647.09c7.319,56.265,7.417,111.211,7.417,111.211s-32.413-72.718-63.371-76.537-57.886,60.056-57.886,60.056,1.665-63.259,3.167-84.293c.423-5.931,1.011-9.584,3.32-23.551,0,0,36.25,9.378,48.6,10.983C617.327,646.854,661.5,647.09,661.5,647.09Z" transform="translate(-547.662 -633.976)" fill="#bbdff5"/>
        </g>
        <g id="Group_154" data-name="Group 154" transform="translate(7.527 74.483)">
          <path id="Path_10" data-name="Path 10" d="M556.839,589.769c6.93-41.92,25.552-123.324,63.637-103.585,24.266,12.576,37.017,65.191,43.716,116.7,0,0-44.174-.336-58.75-2.228C593.094,599.052,556.839,589.769,556.839,589.769Z" transform="translate(-556.839 -483.149)" fill="#fff"/>
          <g id="Group_153" data-name="Group 153" clip-path="url(#clip-path)">
            <g id="Group_152" data-name="Group 152" transform="translate(-1.045 17.892)">
              <g id="Group_32" data-name="Group 32" transform="translate(3.535)">
                <g id="Group_16" data-name="Group 16">
                  <path id="Path_11" data-name="Path 11" d="M561.775,518.356a1.413,1.413,0,0,1-1.414-1.414v-7.069a1.414,1.414,0,1,1,2.828,0v7.069A1.414,1.414,0,0,1,561.775,518.356Z" transform="translate(-560.361 -508.459)" fill="#def3f9"/>
                </g>
                <g id="Group_17" data-name="Group 17" transform="translate(7.069)">
                  <path id="Path_12" data-name="Path 12" d="M571.775,518.356a1.413,1.413,0,0,1-1.414-1.414v-7.069a1.414,1.414,0,1,1,2.828,0v7.069A1.414,1.414,0,0,1,571.775,518.356Z" transform="translate(-570.361 -508.459)" fill="#def3f9"/>
                </g>
                <g id="Group_18" data-name="Group 18" transform="translate(14.138)">
                  <path id="Path_13" data-name="Path 13" d="M581.775,518.356a1.413,1.413,0,0,1-1.414-1.414v-7.069a1.414,1.414,0,1,1,2.828,0v7.069A1.414,1.414,0,0,1,581.775,518.356Z" transform="translate(-580.361 -508.459)" fill="#def3f9"/>
                </g>
                <g id="Group_19" data-name="Group 19" transform="translate(21.207)">
                  <path id="Path_14" data-name="Path 14" d="M591.775,518.356a1.413,1.413,0,0,1-1.414-1.414v-7.069a1.414,1.414,0,1,1,2.828,0v7.069A1.414,1.414,0,0,1,591.775,518.356Z" transform="translate(-590.361 -508.459)" fill="#def3f9"/>
                </g>
                <g id="Group_20" data-name="Group 20" transform="translate(28.276)">
                  <path id="Path_15" data-name="Path 15" d="M601.775,518.356a1.413,1.413,0,0,1-1.414-1.414v-7.069a1.414,1.414,0,1,1,2.828,0v7.069A1.414,1.414,0,0,1,601.775,518.356Z" transform="translate(-600.361 -508.459)" fill="#def3f9"/>
                </g>
                <g id="Group_21" data-name="Group 21" transform="translate(35.345)">
                  <path id="Path_16" data-name="Path 16" d="M611.775,518.356a1.413,1.413,0,0,1-1.414-1.414v-7.069a1.414,1.414,0,0,1,2.828,0v7.069A1.414,1.414,0,0,1,611.775,518.356Z" transform="translate(-610.361 -508.459)" fill="#def3f9"/>
                </g>
                <g id="Group_22" data-name="Group 22" transform="translate(42.414)">
                  <path id="Path_17" data-name="Path 17" d="M621.775,518.356a1.413,1.413,0,0,1-1.414-1.414v-7.069a1.414,1.414,0,0,1,2.828,0v7.069A1.414,1.414,0,0,1,621.775,518.356Z" transform="translate(-620.361 -508.459)" fill="#def3f9"/>
                </g>
                <g id="Group_23" data-name="Group 23" transform="translate(49.483)">
                  <path id="Path_18" data-name="Path 18" d="M631.775,518.356a1.413,1.413,0,0,1-1.414-1.414v-7.069a1.414,1.414,0,1,1,2.828,0v7.069A1.414,1.414,0,0,1,631.775,518.356Z" transform="translate(-630.361 -508.459)" fill="#def3f9"/>
                </g>
                <g id="Group_24" data-name="Group 24" transform="translate(56.552)">
                  <path id="Path_19" data-name="Path 19" d="M641.775,518.356a1.413,1.413,0,0,1-1.414-1.414v-7.069a1.414,1.414,0,0,1,2.828,0v7.069A1.414,1.414,0,0,1,641.775,518.356Z" transform="translate(-640.361 -508.459)" fill="#def3f9"/>
                </g>
                <g id="Group_25" data-name="Group 25" transform="translate(63.621)">
                  <path id="Path_20" data-name="Path 20" d="M651.775,518.356a1.413,1.413,0,0,1-1.414-1.414v-7.069a1.414,1.414,0,1,1,2.828,0v7.069A1.414,1.414,0,0,1,651.775,518.356Z" transform="translate(-650.361 -508.459)" fill="#def3f9"/>
                </g>
                <g id="Group_26" data-name="Group 26" transform="translate(70.69)">
                  <path id="Path_21" data-name="Path 21" d="M661.775,518.356a1.413,1.413,0,0,1-1.414-1.414v-7.069a1.414,1.414,0,1,1,2.828,0v7.069A1.414,1.414,0,0,1,661.775,518.356Z" transform="translate(-660.361 -508.459)" fill="#def3f9"/>
                </g>
                <g id="Group_27" data-name="Group 27" transform="translate(77.759)">
                  <path id="Path_22" data-name="Path 22" d="M671.775,518.356a1.413,1.413,0,0,1-1.414-1.414v-7.069a1.414,1.414,0,0,1,2.828,0v7.069A1.414,1.414,0,0,1,671.775,518.356Z" transform="translate(-670.361 -508.459)" fill="#def3f9"/>
                </g>
                <g id="Group_28" data-name="Group 28" transform="translate(84.828)">
                  <path id="Path_23" data-name="Path 23" d="M681.775,518.356a1.413,1.413,0,0,1-1.414-1.414v-7.069a1.414,1.414,0,1,1,2.828,0v7.069A1.414,1.414,0,0,1,681.775,518.356Z" transform="translate(-680.361 -508.459)" fill="#def3f9"/>
                </g>
                <g id="Group_29" data-name="Group 29" transform="translate(91.897)">
                  <path id="Path_24" data-name="Path 24" d="M691.775,518.356a1.413,1.413,0,0,1-1.414-1.414v-7.069a1.414,1.414,0,0,1,2.828,0v7.069A1.414,1.414,0,0,1,691.775,518.356Z" transform="translate(-690.361 -508.459)" fill="#def3f9"/>
                </g>
                <g id="Group_30" data-name="Group 30" transform="translate(98.966)">
                  <path id="Path_25" data-name="Path 25" d="M701.775,518.356a1.413,1.413,0,0,1-1.414-1.414v-7.069a1.414,1.414,0,1,1,2.828,0v7.069A1.414,1.414,0,0,1,701.775,518.356Z" transform="translate(-700.361 -508.459)" fill="#def3f9"/>
                </g>
                <g id="Group_31" data-name="Group 31" transform="translate(106.035)">
                  <path id="Path_26" data-name="Path 26" d="M711.775,518.356a1.413,1.413,0,0,1-1.414-1.414v-7.069a1.414,1.414,0,1,1,2.827,0v7.069A1.414,1.414,0,0,1,711.775,518.356Z" transform="translate(-710.361 -508.459)" fill="#def3f9"/>
                </g>
              </g>
              <g id="Group_49" data-name="Group 49" transform="translate(0 14.138)">
                <g id="Group_33" data-name="Group 33">
                  <path id="Path_27" data-name="Path 27" d="M556.775,538.355a1.413,1.413,0,0,1-1.414-1.414v-7.069a1.414,1.414,0,0,1,2.828,0v7.069A1.414,1.414,0,0,1,556.775,538.355Z" transform="translate(-555.361 -528.459)" fill="#def3f9"/>
                </g>
                <g id="Group_34" data-name="Group 34" transform="translate(7.069)">
                  <path id="Path_28" data-name="Path 28" d="M566.775,538.355a1.413,1.413,0,0,1-1.414-1.414v-7.069a1.414,1.414,0,0,1,2.828,0v7.069A1.414,1.414,0,0,1,566.775,538.355Z" transform="translate(-565.361 -528.459)" fill="#def3f9"/>
                </g>
                <g id="Group_35" data-name="Group 35" transform="translate(14.138)">
                  <path id="Path_29" data-name="Path 29" d="M576.775,538.355a1.413,1.413,0,0,1-1.414-1.414v-7.069a1.414,1.414,0,0,1,2.828,0v7.069A1.414,1.414,0,0,1,576.775,538.355Z" transform="translate(-575.361 -528.459)" fill="#def3f9"/>
                </g>
                <g id="Group_36" data-name="Group 36" transform="translate(21.207)">
                  <path id="Path_30" data-name="Path 30" d="M586.775,538.355a1.413,1.413,0,0,1-1.414-1.414v-7.069a1.414,1.414,0,0,1,2.828,0v7.069A1.414,1.414,0,0,1,586.775,538.355Z" transform="translate(-585.361 -528.459)" fill="#def3f9"/>
                </g>
                <g id="Group_37" data-name="Group 37" transform="translate(28.276)">
                  <path id="Path_31" data-name="Path 31" d="M596.775,538.355a1.413,1.413,0,0,1-1.414-1.414v-7.069a1.414,1.414,0,0,1,2.828,0v7.069A1.414,1.414,0,0,1,596.775,538.355Z" transform="translate(-595.361 -528.459)" fill="#def3f9"/>
                </g>
                <g id="Group_38" data-name="Group 38" transform="translate(35.345)">
                  <path id="Path_32" data-name="Path 32" d="M606.775,538.355a1.413,1.413,0,0,1-1.414-1.414v-7.069a1.414,1.414,0,0,1,2.828,0v7.069A1.414,1.414,0,0,1,606.775,538.355Z" transform="translate(-605.361 -528.459)" fill="#def3f9"/>
                </g>
                <g id="Group_39" data-name="Group 39" transform="translate(42.414)">
                  <path id="Path_33" data-name="Path 33" d="M616.775,538.355a1.413,1.413,0,0,1-1.414-1.414v-7.069a1.414,1.414,0,0,1,2.827,0v7.069A1.414,1.414,0,0,1,616.775,538.355Z" transform="translate(-615.361 -528.459)" fill="#def3f9"/>
                </g>
                <g id="Group_40" data-name="Group 40" transform="translate(49.483)">
                  <path id="Path_34" data-name="Path 34" d="M626.775,538.355a1.413,1.413,0,0,1-1.414-1.414v-7.069a1.414,1.414,0,0,1,2.828,0v7.069A1.414,1.414,0,0,1,626.775,538.355Z" transform="translate(-625.361 -528.459)" fill="#def3f9"/>
                </g>
                <g id="Group_41" data-name="Group 41" transform="translate(56.552)">
                  <path id="Path_35" data-name="Path 35" d="M636.775,538.355a1.413,1.413,0,0,1-1.414-1.414v-7.069a1.414,1.414,0,0,1,2.827,0v7.069A1.414,1.414,0,0,1,636.775,538.355Z" transform="translate(-635.361 -528.459)" fill="#def3f9"/>
                </g>
                <g id="Group_42" data-name="Group 42" transform="translate(63.621)">
                  <path id="Path_36" data-name="Path 36" d="M646.775,538.355a1.413,1.413,0,0,1-1.414-1.414v-7.069a1.414,1.414,0,1,1,2.827,0v7.069A1.414,1.414,0,0,1,646.775,538.355Z" transform="translate(-645.361 -528.459)" fill="#def3f9"/>
                </g>
                <g id="Group_43" data-name="Group 43" transform="translate(70.69)">
                  <path id="Path_37" data-name="Path 37" d="M656.775,538.355a1.413,1.413,0,0,1-1.414-1.414v-7.069a1.414,1.414,0,0,1,2.828,0v7.069A1.414,1.414,0,0,1,656.775,538.355Z" transform="translate(-655.361 -528.459)" fill="#def3f9"/>
                </g>
                <g id="Group_44" data-name="Group 44" transform="translate(77.759)">
                  <path id="Path_38" data-name="Path 38" d="M666.775,538.355a1.413,1.413,0,0,1-1.414-1.414v-7.069a1.414,1.414,0,0,1,2.828,0v7.069A1.414,1.414,0,0,1,666.775,538.355Z" transform="translate(-665.361 -528.459)" fill="#def3f9"/>
                </g>
                <g id="Group_45" data-name="Group 45" transform="translate(84.828)">
                  <path id="Path_39" data-name="Path 39" d="M676.775,538.355a1.413,1.413,0,0,1-1.414-1.414v-7.069a1.414,1.414,0,0,1,2.828,0v7.069A1.414,1.414,0,0,1,676.775,538.355Z" transform="translate(-675.361 -528.459)" fill="#def3f9"/>
                </g>
                <g id="Group_46" data-name="Group 46" transform="translate(91.897)">
                  <path id="Path_40" data-name="Path 40" d="M686.775,538.355a1.413,1.413,0,0,1-1.414-1.414v-7.069a1.414,1.414,0,0,1,2.828,0v7.069A1.414,1.414,0,0,1,686.775,538.355Z" transform="translate(-685.361 -528.459)" fill="#def3f9"/>
                </g>
                <g id="Group_47" data-name="Group 47" transform="translate(98.966)">
                  <path id="Path_41" data-name="Path 41" d="M696.775,538.355a1.413,1.413,0,0,1-1.414-1.414v-7.069a1.414,1.414,0,0,1,2.828,0v7.069A1.414,1.414,0,0,1,696.775,538.355Z" transform="translate(-695.361 -528.459)" fill="#def3f9"/>
                </g>
                <g id="Group_48" data-name="Group 48" transform="translate(106.035)">
                  <path id="Path_42" data-name="Path 42" d="M706.775,538.355a1.413,1.413,0,0,1-1.414-1.414v-7.069a1.414,1.414,0,0,1,2.828,0v7.069A1.414,1.414,0,0,1,706.775,538.355Z" transform="translate(-705.361 -528.459)" fill="#def3f9"/>
                </g>
              </g>
              <g id="Group_66" data-name="Group 66" transform="translate(3.535 28.276)">
                <g id="Group_50" data-name="Group 50">
                  <path id="Path_43" data-name="Path 43" d="M561.775,558.356a1.413,1.413,0,0,1-1.414-1.414v-7.069a1.414,1.414,0,0,1,2.828,0v7.069A1.414,1.414,0,0,1,561.775,558.356Z" transform="translate(-560.361 -548.459)" fill="#def3f9"/>
                </g>
                <g id="Group_51" data-name="Group 51" transform="translate(7.069)">
                  <path id="Path_44" data-name="Path 44" d="M571.775,558.356a1.413,1.413,0,0,1-1.414-1.414v-7.069a1.414,1.414,0,0,1,2.828,0v7.069A1.414,1.414,0,0,1,571.775,558.356Z" transform="translate(-570.361 -548.459)" fill="#def3f9"/>
                </g>
                <g id="Group_52" data-name="Group 52" transform="translate(14.138)">
                  <path id="Path_45" data-name="Path 45" d="M581.775,558.356a1.413,1.413,0,0,1-1.414-1.414v-7.069a1.414,1.414,0,0,1,2.828,0v7.069A1.414,1.414,0,0,1,581.775,558.356Z" transform="translate(-580.361 -548.459)" fill="#def3f9"/>
                </g>
                <g id="Group_53" data-name="Group 53" transform="translate(21.207)">
                  <path id="Path_46" data-name="Path 46" d="M591.775,558.356a1.413,1.413,0,0,1-1.414-1.414v-7.069a1.414,1.414,0,0,1,2.828,0v7.069A1.414,1.414,0,0,1,591.775,558.356Z" transform="translate(-590.361 -548.459)" fill="#def3f9"/>
                </g>
                <g id="Group_54" data-name="Group 54" transform="translate(28.276)">
                  <path id="Path_47" data-name="Path 47" d="M601.775,558.356a1.413,1.413,0,0,1-1.414-1.414v-7.069a1.414,1.414,0,0,1,2.828,0v7.069A1.414,1.414,0,0,1,601.775,558.356Z" transform="translate(-600.361 -548.459)" fill="#def3f9"/>
                </g>
                <g id="Group_55" data-name="Group 55" transform="translate(35.345)">
                  <path id="Path_48" data-name="Path 48" d="M611.775,558.356a1.413,1.413,0,0,1-1.414-1.414v-7.069a1.414,1.414,0,0,1,2.828,0v7.069A1.414,1.414,0,0,1,611.775,558.356Z" transform="translate(-610.361 -548.459)" fill="#def3f9"/>
                </g>
                <g id="Group_56" data-name="Group 56" transform="translate(42.414)">
                  <path id="Path_49" data-name="Path 49" d="M621.775,558.356a1.413,1.413,0,0,1-1.414-1.414v-7.069a1.414,1.414,0,0,1,2.828,0v7.069A1.414,1.414,0,0,1,621.775,558.356Z" transform="translate(-620.361 -548.459)" fill="#def3f9"/>
                </g>
                <g id="Group_57" data-name="Group 57" transform="translate(49.483)">
                  <path id="Path_50" data-name="Path 50" d="M631.775,558.356a1.413,1.413,0,0,1-1.414-1.414v-7.069a1.414,1.414,0,0,1,2.828,0v7.069A1.414,1.414,0,0,1,631.775,558.356Z" transform="translate(-630.361 -548.459)" fill="#def3f9"/>
                </g>
                <g id="Group_58" data-name="Group 58" transform="translate(56.552)">
                  <path id="Path_51" data-name="Path 51" d="M641.775,558.356a1.413,1.413,0,0,1-1.414-1.414v-7.069a1.414,1.414,0,0,1,2.828,0v7.069A1.414,1.414,0,0,1,641.775,558.356Z" transform="translate(-640.361 -548.459)" fill="#def3f9"/>
                </g>
                <g id="Group_59" data-name="Group 59" transform="translate(63.621)">
                  <path id="Path_52" data-name="Path 52" d="M651.775,558.356a1.413,1.413,0,0,1-1.414-1.414v-7.069a1.414,1.414,0,0,1,2.828,0v7.069A1.414,1.414,0,0,1,651.775,558.356Z" transform="translate(-650.361 -548.459)" fill="#def3f9"/>
                </g>
                <g id="Group_60" data-name="Group 60" transform="translate(70.69)">
                  <path id="Path_53" data-name="Path 53" d="M661.775,558.356a1.413,1.413,0,0,1-1.414-1.414v-7.069a1.414,1.414,0,0,1,2.828,0v7.069A1.414,1.414,0,0,1,661.775,558.356Z" transform="translate(-660.361 -548.459)" fill="#def3f9"/>
                </g>
                <g id="Group_61" data-name="Group 61" transform="translate(77.759)">
                  <path id="Path_54" data-name="Path 54" d="M671.775,558.356a1.413,1.413,0,0,1-1.414-1.414v-7.069a1.414,1.414,0,0,1,2.828,0v7.069A1.414,1.414,0,0,1,671.775,558.356Z" transform="translate(-670.361 -548.459)" fill="#def3f9"/>
                </g>
                <g id="Group_62" data-name="Group 62" transform="translate(84.828)">
                  <path id="Path_55" data-name="Path 55" d="M681.775,558.356a1.413,1.413,0,0,1-1.414-1.414v-7.069a1.414,1.414,0,0,1,2.828,0v7.069A1.414,1.414,0,0,1,681.775,558.356Z" transform="translate(-680.361 -548.459)" fill="#def3f9"/>
                </g>
                <g id="Group_63" data-name="Group 63" transform="translate(91.897)">
                  <path id="Path_56" data-name="Path 56" d="M691.775,558.356a1.413,1.413,0,0,1-1.414-1.414v-7.069a1.414,1.414,0,0,1,2.828,0v7.069A1.414,1.414,0,0,1,691.775,558.356Z" transform="translate(-690.361 -548.459)" fill="#def3f9"/>
                </g>
                <g id="Group_64" data-name="Group 64" transform="translate(98.966)">
                  <path id="Path_57" data-name="Path 57" d="M701.775,558.356a1.413,1.413,0,0,1-1.414-1.414v-7.069a1.414,1.414,0,0,1,2.828,0v7.069A1.414,1.414,0,0,1,701.775,558.356Z" transform="translate(-700.361 -548.459)" fill="#def3f9"/>
                </g>
                <g id="Group_65" data-name="Group 65" transform="translate(106.035)">
                  <path id="Path_58" data-name="Path 58" d="M711.775,558.356a1.413,1.413,0,0,1-1.414-1.414v-7.069a1.414,1.414,0,0,1,2.827,0v7.069A1.414,1.414,0,0,1,711.775,558.356Z" transform="translate(-710.361 -548.459)" fill="#def3f9"/>
                </g>
              </g>
              <g id="Group_83" data-name="Group 83" transform="translate(0 42.414)">
                <g id="Group_67" data-name="Group 67">
                  <path id="Path_59" data-name="Path 59" d="M556.775,578.356a1.413,1.413,0,0,1-1.414-1.414v-7.069a1.414,1.414,0,1,1,2.828,0v7.069A1.414,1.414,0,0,1,556.775,578.356Z" transform="translate(-555.361 -568.459)" fill="#def3f9"/>
                </g>
                <g id="Group_68" data-name="Group 68" transform="translate(7.069)">
                  <path id="Path_60" data-name="Path 60" d="M566.775,578.356a1.413,1.413,0,0,1-1.414-1.414v-7.069a1.414,1.414,0,1,1,2.828,0v7.069A1.414,1.414,0,0,1,566.775,578.356Z" transform="translate(-565.361 -568.459)" fill="#def3f9"/>
                </g>
                <g id="Group_69" data-name="Group 69" transform="translate(14.138)">
                  <path id="Path_61" data-name="Path 61" d="M576.775,578.356a1.413,1.413,0,0,1-1.414-1.414v-7.069a1.414,1.414,0,1,1,2.828,0v7.069A1.414,1.414,0,0,1,576.775,578.356Z" transform="translate(-575.361 -568.459)" fill="#def3f9"/>
                </g>
                <g id="Group_70" data-name="Group 70" transform="translate(21.207)">
                  <path id="Path_62" data-name="Path 62" d="M586.775,578.356a1.414,1.414,0,0,1-1.414-1.414v-7.069a1.414,1.414,0,1,1,2.828,0v7.069A1.414,1.414,0,0,1,586.775,578.356Z" transform="translate(-585.361 -568.459)" fill="#def3f9"/>
                </g>
                <g id="Group_71" data-name="Group 71" transform="translate(28.276)">
                  <path id="Path_63" data-name="Path 63" d="M596.775,578.356a1.413,1.413,0,0,1-1.414-1.414v-7.069a1.414,1.414,0,1,1,2.828,0v7.069A1.414,1.414,0,0,1,596.775,578.356Z" transform="translate(-595.361 -568.459)" fill="#def3f9"/>
                </g>
                <g id="Group_72" data-name="Group 72" transform="translate(35.345)">
                  <path id="Path_64" data-name="Path 64" d="M606.775,578.356a1.414,1.414,0,0,1-1.414-1.414v-7.069a1.414,1.414,0,1,1,2.828,0v7.069A1.414,1.414,0,0,1,606.775,578.356Z" transform="translate(-605.361 -568.459)" fill="#def3f9"/>
                </g>
                <g id="Group_73" data-name="Group 73" transform="translate(42.414)">
                  <path id="Path_65" data-name="Path 65" d="M616.775,578.356a1.413,1.413,0,0,1-1.414-1.414v-7.069a1.414,1.414,0,1,1,2.827,0v7.069A1.414,1.414,0,0,1,616.775,578.356Z" transform="translate(-615.361 -568.459)" fill="#def3f9"/>
                </g>
                <g id="Group_74" data-name="Group 74" transform="translate(49.483)">
                  <path id="Path_66" data-name="Path 66" d="M626.775,578.356a1.414,1.414,0,0,1-1.414-1.414v-7.069a1.414,1.414,0,1,1,2.828,0v7.069A1.414,1.414,0,0,1,626.775,578.356Z" transform="translate(-625.361 -568.459)" fill="#def3f9"/>
                </g>
                <g id="Group_75" data-name="Group 75" transform="translate(56.552)">
                  <path id="Path_67" data-name="Path 67" d="M636.775,578.356a1.413,1.413,0,0,1-1.414-1.414v-7.069a1.414,1.414,0,1,1,2.827,0v7.069A1.414,1.414,0,0,1,636.775,578.356Z" transform="translate(-635.361 -568.459)" fill="#def3f9"/>
                </g>
                <g id="Group_76" data-name="Group 76" transform="translate(63.621)">
                  <path id="Path_68" data-name="Path 68" d="M646.775,578.356a1.413,1.413,0,0,1-1.414-1.414v-7.069a1.414,1.414,0,1,1,2.827,0v7.069A1.414,1.414,0,0,1,646.775,578.356Z" transform="translate(-645.361 -568.459)" fill="#def3f9"/>
                </g>
                <g id="Group_77" data-name="Group 77" transform="translate(70.69)">
                  <path id="Path_69" data-name="Path 69" d="M656.775,578.356a1.413,1.413,0,0,1-1.414-1.414v-7.069a1.414,1.414,0,1,1,2.828,0v7.069A1.414,1.414,0,0,1,656.775,578.356Z" transform="translate(-655.361 -568.459)" fill="#def3f9"/>
                </g>
                <g id="Group_78" data-name="Group 78" transform="translate(77.759)">
                  <path id="Path_70" data-name="Path 70" d="M666.775,578.356a1.413,1.413,0,0,1-1.414-1.414v-7.069a1.414,1.414,0,1,1,2.828,0v7.069A1.414,1.414,0,0,1,666.775,578.356Z" transform="translate(-665.361 -568.459)" fill="#def3f9"/>
                </g>
                <g id="Group_79" data-name="Group 79" transform="translate(84.828)">
                  <path id="Path_71" data-name="Path 71" d="M676.775,578.356a1.413,1.413,0,0,1-1.414-1.414v-7.069a1.414,1.414,0,1,1,2.828,0v7.069A1.414,1.414,0,0,1,676.775,578.356Z" transform="translate(-675.361 -568.459)" fill="#def3f9"/>
                </g>
                <g id="Group_80" data-name="Group 80" transform="translate(91.897)">
                  <path id="Path_72" data-name="Path 72" d="M686.775,578.356a1.413,1.413,0,0,1-1.414-1.414v-7.069a1.414,1.414,0,1,1,2.828,0v7.069A1.414,1.414,0,0,1,686.775,578.356Z" transform="translate(-685.361 -568.459)" fill="#def3f9"/>
                </g>
                <g id="Group_81" data-name="Group 81" transform="translate(98.966)">
                  <path id="Path_73" data-name="Path 73" d="M696.775,578.356a1.413,1.413,0,0,1-1.414-1.414v-7.069a1.414,1.414,0,1,1,2.828,0v7.069A1.414,1.414,0,0,1,696.775,578.356Z" transform="translate(-695.361 -568.459)" fill="#def3f9"/>
                </g>
                <g id="Group_82" data-name="Group 82" transform="translate(106.035)">
                  <path id="Path_74" data-name="Path 74" d="M706.775,578.356a1.413,1.413,0,0,1-1.414-1.414v-7.069a1.414,1.414,0,1,1,2.828,0v7.069A1.414,1.414,0,0,1,706.775,578.356Z" transform="translate(-705.361 -568.459)" fill="#def3f9"/>
                </g>
              </g>
              <g id="Group_100" data-name="Group 100" transform="translate(3.535 56.552)">
                <g id="Group_84" data-name="Group 84">
                  <path id="Path_75" data-name="Path 75" d="M561.775,598.356a1.413,1.413,0,0,1-1.414-1.414v-7.069a1.414,1.414,0,0,1,2.828,0v7.069A1.414,1.414,0,0,1,561.775,598.356Z" transform="translate(-560.361 -588.459)" fill="#def3f9"/>
                </g>
                <g id="Group_85" data-name="Group 85" transform="translate(7.069)">
                  <path id="Path_76" data-name="Path 76" d="M571.775,598.356a1.413,1.413,0,0,1-1.414-1.414v-7.069a1.414,1.414,0,0,1,2.828,0v7.069A1.414,1.414,0,0,1,571.775,598.356Z" transform="translate(-570.361 -588.459)" fill="#def3f9"/>
                </g>
                <g id="Group_86" data-name="Group 86" transform="translate(14.138)">
                  <path id="Path_77" data-name="Path 77" d="M581.775,598.356a1.413,1.413,0,0,1-1.414-1.414v-7.069a1.414,1.414,0,0,1,2.828,0v7.069A1.414,1.414,0,0,1,581.775,598.356Z" transform="translate(-580.361 -588.459)" fill="#def3f9"/>
                </g>
                <g id="Group_87" data-name="Group 87" transform="translate(21.207)">
                  <path id="Path_78" data-name="Path 78" d="M591.775,598.356a1.413,1.413,0,0,1-1.414-1.414v-7.069a1.414,1.414,0,0,1,2.828,0v7.069A1.414,1.414,0,0,1,591.775,598.356Z" transform="translate(-590.361 -588.459)" fill="#def3f9"/>
                </g>
                <g id="Group_88" data-name="Group 88" transform="translate(28.276)">
                  <path id="Path_79" data-name="Path 79" d="M601.775,598.356a1.413,1.413,0,0,1-1.414-1.414v-7.069a1.414,1.414,0,0,1,2.828,0v7.069A1.414,1.414,0,0,1,601.775,598.356Z" transform="translate(-600.361 -588.459)" fill="#def3f9"/>
                </g>
                <g id="Group_89" data-name="Group 89" transform="translate(35.345)">
                  <path id="Path_80" data-name="Path 80" d="M611.775,598.356a1.413,1.413,0,0,1-1.414-1.414v-7.069a1.414,1.414,0,0,1,2.828,0v7.069A1.414,1.414,0,0,1,611.775,598.356Z" transform="translate(-610.361 -588.459)" fill="#def3f9"/>
                </g>
                <g id="Group_90" data-name="Group 90" transform="translate(42.414)">
                  <path id="Path_81" data-name="Path 81" d="M621.775,598.356a1.414,1.414,0,0,1-1.414-1.414v-7.069a1.414,1.414,0,0,1,2.828,0v7.069A1.414,1.414,0,0,1,621.775,598.356Z" transform="translate(-620.361 -588.459)" fill="#def3f9"/>
                </g>
                <g id="Group_91" data-name="Group 91" transform="translate(49.483)">
                  <path id="Path_82" data-name="Path 82" d="M631.775,598.356a1.413,1.413,0,0,1-1.414-1.414v-7.069a1.414,1.414,0,0,1,2.828,0v7.069A1.414,1.414,0,0,1,631.775,598.356Z" transform="translate(-630.361 -588.459)" fill="#def3f9"/>
                </g>
                <g id="Group_92" data-name="Group 92" transform="translate(56.552)">
                  <path id="Path_83" data-name="Path 83" d="M641.775,598.356a1.413,1.413,0,0,1-1.414-1.414v-7.069a1.414,1.414,0,0,1,2.828,0v7.069A1.414,1.414,0,0,1,641.775,598.356Z" transform="translate(-640.361 -588.459)" fill="#def3f9"/>
                </g>
                <g id="Group_93" data-name="Group 93" transform="translate(63.621)">
                  <path id="Path_84" data-name="Path 84" d="M651.775,598.356a1.413,1.413,0,0,1-1.414-1.414v-7.069a1.414,1.414,0,0,1,2.828,0v7.069A1.414,1.414,0,0,1,651.775,598.356Z" transform="translate(-650.361 -588.459)" fill="#def3f9"/>
                </g>
                <g id="Group_94" data-name="Group 94" transform="translate(70.69)">
                  <path id="Path_85" data-name="Path 85" d="M661.775,598.356a1.413,1.413,0,0,1-1.414-1.414v-7.069a1.414,1.414,0,0,1,2.828,0v7.069A1.414,1.414,0,0,1,661.775,598.356Z" transform="translate(-660.361 -588.459)" fill="#def3f9"/>
                </g>
                <g id="Group_95" data-name="Group 95" transform="translate(77.759)">
                  <path id="Path_86" data-name="Path 86" d="M671.775,598.356a1.413,1.413,0,0,1-1.414-1.414v-7.069a1.414,1.414,0,0,1,2.828,0v7.069A1.414,1.414,0,0,1,671.775,598.356Z" transform="translate(-670.361 -588.459)" fill="#def3f9"/>
                </g>
                <g id="Group_96" data-name="Group 96" transform="translate(84.828)">
                  <path id="Path_87" data-name="Path 87" d="M681.775,598.356a1.414,1.414,0,0,1-1.414-1.414v-7.069a1.414,1.414,0,0,1,2.828,0v7.069A1.414,1.414,0,0,1,681.775,598.356Z" transform="translate(-680.361 -588.459)" fill="#def3f9"/>
                </g>
                <g id="Group_97" data-name="Group 97" transform="translate(91.897)">
                  <path id="Path_88" data-name="Path 88" d="M691.775,598.356a1.413,1.413,0,0,1-1.414-1.414v-7.069a1.414,1.414,0,0,1,2.828,0v7.069A1.414,1.414,0,0,1,691.775,598.356Z" transform="translate(-690.361 -588.459)" fill="#def3f9"/>
                </g>
                <g id="Group_98" data-name="Group 98" transform="translate(98.966)">
                  <path id="Path_89" data-name="Path 89" d="M701.775,598.356a1.414,1.414,0,0,1-1.414-1.414v-7.069a1.414,1.414,0,0,1,2.828,0v7.069A1.414,1.414,0,0,1,701.775,598.356Z" transform="translate(-700.361 -588.459)" fill="#def3f9"/>
                </g>
                <g id="Group_99" data-name="Group 99" transform="translate(106.035)">
                  <path id="Path_90" data-name="Path 90" d="M711.775,598.356a1.413,1.413,0,0,1-1.414-1.414v-7.069a1.414,1.414,0,0,1,2.827,0v7.069A1.414,1.414,0,0,1,711.775,598.356Z" transform="translate(-710.361 -588.459)" fill="#def3f9"/>
                </g>
              </g>
              <g id="Group_117" data-name="Group 117" transform="translate(0 70.69)">
                <g id="Group_101" data-name="Group 101">
                  <path id="Path_91" data-name="Path 91" d="M556.775,618.356a1.413,1.413,0,0,1-1.414-1.414v-7.069a1.414,1.414,0,1,1,2.828,0v7.069A1.414,1.414,0,0,1,556.775,618.356Z" transform="translate(-555.361 -608.459)" fill="#def3f9"/>
                </g>
                <g id="Group_102" data-name="Group 102" transform="translate(7.069)">
                  <path id="Path_92" data-name="Path 92" d="M566.775,618.356a1.413,1.413,0,0,1-1.414-1.414v-7.069a1.414,1.414,0,1,1,2.828,0v7.069A1.414,1.414,0,0,1,566.775,618.356Z" transform="translate(-565.361 -608.459)" fill="#def3f9"/>
                </g>
                <g id="Group_103" data-name="Group 103" transform="translate(14.138)">
                  <path id="Path_93" data-name="Path 93" d="M576.775,618.356a1.413,1.413,0,0,1-1.414-1.414v-7.069a1.414,1.414,0,1,1,2.828,0v7.069A1.414,1.414,0,0,1,576.775,618.356Z" transform="translate(-575.361 -608.459)" fill="#def3f9"/>
                </g>
                <g id="Group_104" data-name="Group 104" transform="translate(21.207)">
                  <path id="Path_94" data-name="Path 94" d="M586.775,618.356a1.413,1.413,0,0,1-1.414-1.414v-7.069a1.414,1.414,0,1,1,2.828,0v7.069A1.414,1.414,0,0,1,586.775,618.356Z" transform="translate(-585.361 -608.459)" fill="#def3f9"/>
                </g>
                <g id="Group_105" data-name="Group 105" transform="translate(28.276)">
                  <path id="Path_95" data-name="Path 95" d="M596.775,618.356a1.413,1.413,0,0,1-1.414-1.414v-7.069a1.414,1.414,0,1,1,2.828,0v7.069A1.414,1.414,0,0,1,596.775,618.356Z" transform="translate(-595.361 -608.459)" fill="#def3f9"/>
                </g>
                <g id="Group_106" data-name="Group 106" transform="translate(35.345)">
                  <path id="Path_96" data-name="Path 96" d="M606.775,618.356a1.413,1.413,0,0,1-1.414-1.414v-7.069a1.414,1.414,0,1,1,2.828,0v7.069A1.414,1.414,0,0,1,606.775,618.356Z" transform="translate(-605.361 -608.459)" fill="#def3f9"/>
                </g>
                <g id="Group_107" data-name="Group 107" transform="translate(42.414)">
                  <path id="Path_97" data-name="Path 97" d="M616.775,618.356a1.413,1.413,0,0,1-1.414-1.414v-7.069a1.414,1.414,0,1,1,2.827,0v7.069A1.414,1.414,0,0,1,616.775,618.356Z" transform="translate(-615.361 -608.459)" fill="#def3f9"/>
                </g>
                <g id="Group_108" data-name="Group 108" transform="translate(49.483)">
                  <path id="Path_98" data-name="Path 98" d="M626.775,618.356a1.413,1.413,0,0,1-1.414-1.414v-7.069a1.414,1.414,0,1,1,2.828,0v7.069A1.414,1.414,0,0,1,626.775,618.356Z" transform="translate(-625.361 -608.459)" fill="#def3f9"/>
                </g>
                <g id="Group_109" data-name="Group 109" transform="translate(56.552)">
                  <path id="Path_99" data-name="Path 99" d="M636.775,618.356a1.413,1.413,0,0,1-1.414-1.414v-7.069a1.414,1.414,0,1,1,2.827,0v7.069A1.414,1.414,0,0,1,636.775,618.356Z" transform="translate(-635.361 -608.459)" fill="#def3f9"/>
                </g>
                <g id="Group_110" data-name="Group 110" transform="translate(63.621)">
                  <path id="Path_100" data-name="Path 100" d="M646.775,618.356a1.413,1.413,0,0,1-1.414-1.414v-7.069a1.414,1.414,0,1,1,2.827,0v7.069A1.414,1.414,0,0,1,646.775,618.356Z" transform="translate(-645.361 -608.459)" fill="#def3f9"/>
                </g>
                <g id="Group_111" data-name="Group 111" transform="translate(70.69)">
                  <path id="Path_101" data-name="Path 101" d="M656.775,618.356a1.413,1.413,0,0,1-1.414-1.414v-7.069a1.414,1.414,0,0,1,2.828,0v7.069A1.414,1.414,0,0,1,656.775,618.356Z" transform="translate(-655.361 -608.459)" fill="#def3f9"/>
                </g>
                <g id="Group_112" data-name="Group 112" transform="translate(77.759)">
                  <path id="Path_102" data-name="Path 102" d="M666.775,618.356a1.413,1.413,0,0,1-1.414-1.414v-7.069a1.414,1.414,0,1,1,2.828,0v7.069A1.414,1.414,0,0,1,666.775,618.356Z" transform="translate(-665.361 -608.459)" fill="#def3f9"/>
                </g>
                <g id="Group_113" data-name="Group 113" transform="translate(84.828)">
                  <path id="Path_103" data-name="Path 103" d="M676.775,618.356a1.413,1.413,0,0,1-1.414-1.414v-7.069a1.414,1.414,0,1,1,2.828,0v7.069A1.414,1.414,0,0,1,676.775,618.356Z" transform="translate(-675.361 -608.459)" fill="#def3f9"/>
                </g>
                <g id="Group_114" data-name="Group 114" transform="translate(91.897)">
                  <path id="Path_104" data-name="Path 104" d="M686.775,618.356a1.413,1.413,0,0,1-1.414-1.414v-7.069a1.414,1.414,0,1,1,2.828,0v7.069A1.414,1.414,0,0,1,686.775,618.356Z" transform="translate(-685.361 -608.459)" fill="#def3f9"/>
                </g>
                <g id="Group_115" data-name="Group 115" transform="translate(98.966)">
                  <path id="Path_105" data-name="Path 105" d="M696.775,618.356a1.413,1.413,0,0,1-1.414-1.414v-7.069a1.414,1.414,0,1,1,2.828,0v7.069A1.414,1.414,0,0,1,696.775,618.356Z" transform="translate(-695.361 -608.459)" fill="#def3f9"/>
                </g>
                <g id="Group_116" data-name="Group 116" transform="translate(106.035)">
                  <path id="Path_106" data-name="Path 106" d="M706.775,618.356a1.413,1.413,0,0,1-1.414-1.414v-7.069a1.414,1.414,0,0,1,2.828,0v7.069A1.414,1.414,0,0,1,706.775,618.356Z" transform="translate(-705.361 -608.459)" fill="#def3f9"/>
                </g>
              </g>
              <g id="Group_134" data-name="Group 134" transform="translate(3.535 84.828)">
                <g id="Group_118" data-name="Group 118">
                  <path id="Path_107" data-name="Path 107" d="M561.775,638.355a1.413,1.413,0,0,1-1.414-1.414v-7.069a1.414,1.414,0,0,1,2.828,0v7.069A1.414,1.414,0,0,1,561.775,638.355Z" transform="translate(-560.361 -628.459)" fill="#def3f9"/>
                </g>
                <g id="Group_119" data-name="Group 119" transform="translate(7.069)">
                  <path id="Path_108" data-name="Path 108" d="M571.775,638.355a1.413,1.413,0,0,1-1.414-1.414v-7.069a1.414,1.414,0,0,1,2.828,0v7.069A1.414,1.414,0,0,1,571.775,638.355Z" transform="translate(-570.361 -628.459)" fill="#def3f9"/>
                </g>
                <g id="Group_120" data-name="Group 120" transform="translate(14.138)">
                  <path id="Path_109" data-name="Path 109" d="M581.775,638.355a1.413,1.413,0,0,1-1.414-1.414v-7.069a1.414,1.414,0,0,1,2.828,0v7.069A1.414,1.414,0,0,1,581.775,638.355Z" transform="translate(-580.361 -628.459)" fill="#def3f9"/>
                </g>
                <g id="Group_121" data-name="Group 121" transform="translate(21.207)">
                  <path id="Path_110" data-name="Path 110" d="M591.775,638.355a1.413,1.413,0,0,1-1.414-1.414v-7.069a1.414,1.414,0,0,1,2.828,0v7.069A1.414,1.414,0,0,1,591.775,638.355Z" transform="translate(-590.361 -628.459)" fill="#def3f9"/>
                </g>
                <g id="Group_122" data-name="Group 122" transform="translate(28.276)">
                  <path id="Path_111" data-name="Path 111" d="M601.775,638.355a1.413,1.413,0,0,1-1.414-1.414v-7.069a1.414,1.414,0,0,1,2.828,0v7.069A1.414,1.414,0,0,1,601.775,638.355Z" transform="translate(-600.361 -628.459)" fill="#def3f9"/>
                </g>
                <g id="Group_123" data-name="Group 123" transform="translate(35.345)">
                  <path id="Path_112" data-name="Path 112" d="M611.775,638.355a1.413,1.413,0,0,1-1.414-1.414v-7.069a1.414,1.414,0,0,1,2.828,0v7.069A1.414,1.414,0,0,1,611.775,638.355Z" transform="translate(-610.361 -628.459)" fill="#def3f9"/>
                </g>
                <g id="Group_124" data-name="Group 124" transform="translate(42.414)">
                  <path id="Path_113" data-name="Path 113" d="M621.775,638.355a1.413,1.413,0,0,1-1.414-1.414v-7.069a1.414,1.414,0,0,1,2.828,0v7.069A1.414,1.414,0,0,1,621.775,638.355Z" transform="translate(-620.361 -628.459)" fill="#def3f9"/>
                </g>
                <g id="Group_125" data-name="Group 125" transform="translate(49.483)">
                  <path id="Path_114" data-name="Path 114" d="M631.775,638.355a1.413,1.413,0,0,1-1.414-1.414v-7.069a1.414,1.414,0,0,1,2.828,0v7.069A1.414,1.414,0,0,1,631.775,638.355Z" transform="translate(-630.361 -628.459)" fill="#def3f9"/>
                </g>
                <g id="Group_126" data-name="Group 126" transform="translate(56.552)">
                  <path id="Path_115" data-name="Path 115" d="M641.775,638.355a1.413,1.413,0,0,1-1.414-1.414v-7.069a1.414,1.414,0,0,1,2.828,0v7.069A1.414,1.414,0,0,1,641.775,638.355Z" transform="translate(-640.361 -628.459)" fill="#def3f9"/>
                </g>
                <g id="Group_127" data-name="Group 127" transform="translate(63.621)">
                  <path id="Path_116" data-name="Path 116" d="M651.775,638.355a1.413,1.413,0,0,1-1.414-1.414v-7.069a1.414,1.414,0,0,1,2.828,0v7.069A1.414,1.414,0,0,1,651.775,638.355Z" transform="translate(-650.361 -628.459)" fill="#def3f9"/>
                </g>
                <g id="Group_128" data-name="Group 128" transform="translate(70.69)">
                  <path id="Path_117" data-name="Path 117" d="M661.775,638.355a1.413,1.413,0,0,1-1.414-1.414v-7.069a1.414,1.414,0,0,1,2.828,0v7.069A1.414,1.414,0,0,1,661.775,638.355Z" transform="translate(-660.361 -628.459)" fill="#def3f9"/>
                </g>
                <g id="Group_129" data-name="Group 129" transform="translate(77.759)">
                  <path id="Path_118" data-name="Path 118" d="M671.775,638.355a1.413,1.413,0,0,1-1.414-1.414v-7.069a1.414,1.414,0,0,1,2.828,0v7.069A1.414,1.414,0,0,1,671.775,638.355Z" transform="translate(-670.361 -628.459)" fill="#def3f9"/>
                </g>
                <g id="Group_130" data-name="Group 130" transform="translate(84.828)">
                  <path id="Path_119" data-name="Path 119" d="M681.775,638.355a1.413,1.413,0,0,1-1.414-1.414v-7.069a1.414,1.414,0,0,1,2.828,0v7.069A1.414,1.414,0,0,1,681.775,638.355Z" transform="translate(-680.361 -628.459)" fill="#def3f9"/>
                </g>
                <g id="Group_131" data-name="Group 131" transform="translate(91.897)">
                  <path id="Path_120" data-name="Path 120" d="M691.775,638.355a1.413,1.413,0,0,1-1.414-1.414v-7.069a1.414,1.414,0,0,1,2.828,0v7.069A1.414,1.414,0,0,1,691.775,638.355Z" transform="translate(-690.361 -628.459)" fill="#def3f9"/>
                </g>
                <g id="Group_132" data-name="Group 132" transform="translate(98.966)">
                  <path id="Path_121" data-name="Path 121" d="M701.775,638.355a1.413,1.413,0,0,1-1.414-1.414v-7.069a1.414,1.414,0,0,1,2.828,0v7.069A1.414,1.414,0,0,1,701.775,638.355Z" transform="translate(-700.361 -628.459)" fill="#def3f9"/>
                </g>
                <g id="Group_133" data-name="Group 133" transform="translate(106.035)">
                  <path id="Path_122" data-name="Path 122" d="M711.775,638.355a1.413,1.413,0,0,1-1.414-1.414v-7.069a1.414,1.414,0,0,1,2.827,0v7.069A1.414,1.414,0,0,1,711.775,638.355Z" transform="translate(-710.361 -628.459)" fill="#def3f9"/>
                </g>
              </g>
              <g id="Group_151" data-name="Group 151" transform="translate(0 98.966)">
                <g id="Group_135" data-name="Group 135">
                  <path id="Path_123" data-name="Path 123" d="M556.775,658.356a1.413,1.413,0,0,1-1.414-1.414v-7.069a1.414,1.414,0,1,1,2.828,0v7.069A1.414,1.414,0,0,1,556.775,658.356Z" transform="translate(-555.361 -648.459)" fill="#def3f9"/>
                </g>
                <g id="Group_136" data-name="Group 136" transform="translate(7.069)">
                  <path id="Path_124" data-name="Path 124" d="M566.775,658.356a1.413,1.413,0,0,1-1.414-1.414v-7.069a1.414,1.414,0,1,1,2.828,0v7.069A1.414,1.414,0,0,1,566.775,658.356Z" transform="translate(-565.361 -648.459)" fill="#def3f9"/>
                </g>
                <g id="Group_137" data-name="Group 137" transform="translate(14.138)">
                  <path id="Path_125" data-name="Path 125" d="M576.775,658.356a1.413,1.413,0,0,1-1.414-1.414v-7.069a1.414,1.414,0,1,1,2.828,0v7.069A1.414,1.414,0,0,1,576.775,658.356Z" transform="translate(-575.361 -648.459)" fill="#def3f9"/>
                </g>
                <g id="Group_138" data-name="Group 138" transform="translate(21.207)">
                  <path id="Path_126" data-name="Path 126" d="M586.775,658.356a1.414,1.414,0,0,1-1.414-1.414v-7.069a1.414,1.414,0,1,1,2.828,0v7.069A1.414,1.414,0,0,1,586.775,658.356Z" transform="translate(-585.361 -648.459)" fill="#def3f9"/>
                </g>
                <g id="Group_139" data-name="Group 139" transform="translate(28.276)">
                  <path id="Path_127" data-name="Path 127" d="M596.775,658.356a1.413,1.413,0,0,1-1.414-1.414v-7.069a1.414,1.414,0,1,1,2.828,0v7.069A1.414,1.414,0,0,1,596.775,658.356Z" transform="translate(-595.361 -648.459)" fill="#def3f9"/>
                </g>
                <g id="Group_140" data-name="Group 140" transform="translate(35.345)">
                  <path id="Path_128" data-name="Path 128" d="M606.775,658.356a1.413,1.413,0,0,1-1.414-1.414v-7.069a1.414,1.414,0,1,1,2.828,0v7.069A1.414,1.414,0,0,1,606.775,658.356Z" transform="translate(-605.361 -648.459)" fill="#def3f9"/>
                </g>
                <g id="Group_141" data-name="Group 141" transform="translate(42.414)">
                  <path id="Path_129" data-name="Path 129" d="M616.775,658.356a1.413,1.413,0,0,1-1.414-1.414v-7.069a1.414,1.414,0,1,1,2.827,0v7.069A1.414,1.414,0,0,1,616.775,658.356Z" transform="translate(-615.361 -648.459)" fill="#def3f9"/>
                </g>
                <g id="Group_142" data-name="Group 142" transform="translate(49.483)">
                  <path id="Path_130" data-name="Path 130" d="M626.775,658.356a1.413,1.413,0,0,1-1.414-1.414v-7.069a1.414,1.414,0,1,1,2.828,0v7.069A1.414,1.414,0,0,1,626.775,658.356Z" transform="translate(-625.361 -648.459)" fill="#def3f9"/>
                </g>
                <g id="Group_143" data-name="Group 143" transform="translate(56.552)">
                  <path id="Path_131" data-name="Path 131" d="M636.775,658.356a1.413,1.413,0,0,1-1.414-1.414v-7.069a1.414,1.414,0,1,1,2.827,0v7.069A1.414,1.414,0,0,1,636.775,658.356Z" transform="translate(-635.361 -648.459)" fill="#def3f9"/>
                </g>
                <g id="Group_144" data-name="Group 144" transform="translate(63.621)">
                  <path id="Path_132" data-name="Path 132" d="M646.775,658.356a1.413,1.413,0,0,1-1.414-1.414v-7.069a1.414,1.414,0,1,1,2.827,0v7.069A1.414,1.414,0,0,1,646.775,658.356Z" transform="translate(-645.361 -648.459)" fill="#def3f9"/>
                </g>
                <g id="Group_145" data-name="Group 145" transform="translate(70.69)">
                  <path id="Path_133" data-name="Path 133" d="M656.775,658.356a1.413,1.413,0,0,1-1.414-1.414v-7.069a1.414,1.414,0,0,1,2.828,0v7.069A1.414,1.414,0,0,1,656.775,658.356Z" transform="translate(-655.361 -648.459)" fill="#def3f9"/>
                </g>
                <g id="Group_146" data-name="Group 146" transform="translate(77.759)">
                  <path id="Path_134" data-name="Path 134" d="M666.775,658.356a1.413,1.413,0,0,1-1.414-1.414v-7.069a1.414,1.414,0,1,1,2.828,0v7.069A1.414,1.414,0,0,1,666.775,658.356Z" transform="translate(-665.361 -648.459)" fill="#def3f9"/>
                </g>
                <g id="Group_147" data-name="Group 147" transform="translate(84.828)">
                  <path id="Path_135" data-name="Path 135" d="M676.775,658.356a1.413,1.413,0,0,1-1.414-1.414v-7.069a1.414,1.414,0,1,1,2.828,0v7.069A1.414,1.414,0,0,1,676.775,658.356Z" transform="translate(-675.361 -648.459)" fill="#def3f9"/>
                </g>
                <g id="Group_148" data-name="Group 148" transform="translate(91.897)">
                  <path id="Path_136" data-name="Path 136" d="M686.775,658.356a1.413,1.413,0,0,1-1.414-1.414v-7.069a1.414,1.414,0,1,1,2.828,0v7.069A1.414,1.414,0,0,1,686.775,658.356Z" transform="translate(-685.361 -648.459)" fill="#def3f9"/>
                </g>
                <g id="Group_149" data-name="Group 149" transform="translate(98.966)">
                  <path id="Path_137" data-name="Path 137" d="M696.775,658.356a1.413,1.413,0,0,1-1.414-1.414v-7.069a1.414,1.414,0,1,1,2.828,0v7.069A1.414,1.414,0,0,1,696.775,658.356Z" transform="translate(-695.361 -648.459)" fill="#def3f9"/>
                </g>
                <g id="Group_150" data-name="Group 150" transform="translate(106.035)">
                  <path id="Path_138" data-name="Path 138" d="M706.775,658.356a1.413,1.413,0,0,1-1.414-1.414v-7.069a1.414,1.414,0,0,1,2.828,0v7.069A1.414,1.414,0,0,1,706.775,658.356Z" transform="translate(-705.361 -648.459)" fill="#def3f9"/>
                </g>
              </g>
            </g>
          </g>
        </g>
        <g id="Group_155" data-name="Group 155" transform="translate(34.917 74.684)">
          <path id="Path_140" data-name="Path 140" d="M615.758,516.993l-9.585-6.6c-3.024-2.083-7.007-4.017-9.6-6.608-2.432-2.433.141-4.507,2.016-7.007a47.974,47.974,0,0,1,5.474-6.217c7.916-7.443,17.979-9.362,27.765-4.29,5.729,2.969,10.384,7.873,14.021,13.131,2.426,3.507-.514,5.744-3.134,8.511a43.193,43.193,0,0,1-7.875,6.556c-2.487,1.611-5.37,3.008-8.3,2.577s-5.6-3.443-4.654-6.251Z" transform="translate(-595.586 -483.434)" fill="#def3f9"/>
        </g>
        <g id="Group_157" data-name="Group 157" transform="translate(0 180.35)">
          <g id="Group_156" data-name="Group 156">
            <path id="Path_141" data-name="Path 141" d="M660.441,650.131a890.829,890.829,0,0,1,7.008,107.93l2.063-.348c-3.58-8.018-7.7-15.828-12.019-23.468-8.116-14.364-17.263-28.745-29.134-40.327-9.222-9-21.092-16.48-34.295-11.889-13.973,4.86-24.2,18.278-32.011,30.167a184.036,184.036,0,0,0-15.8,29.185l2.02.053c.716-27.167,1.289-54.39,2.984-81.517a261.444,261.444,0,0,1,3.5-26.326c.172-1.046-1.922-.8-2.078.147-1.332,8.059-2.805,16.111-3.37,24.269-.5,7.166-.79,14.347-1.087,21.524-.69,16.749-1.216,33.505-1.7,50.261q-.171,5.894-.329,11.789c-.028,1.048,1.716.774,2.021.053a183.646,183.646,0,0,1,11.5-22.3c7.46-12.525,16.767-26.262,29.778-33.569,5.8-3.259,12.4-4.73,18.895-2.791,6.465,1.928,12.063,6.2,16.932,10.741,11.547,10.766,20.439,24.439,28.334,38a280.1,280.1,0,0,1,13.816,26.546c.346.775,2.065.582,2.063-.348a894.237,894.237,0,0,0-7.037-108.333c-.12-.962-2.174-.454-2.049.549Z" transform="translate(-546.192 -632.911)" fill="#6a79a8"/>
          </g>
        </g>
        <g id="Group_159" data-name="Group 159" transform="translate(82.1 87.235)">
          <g id="Group_158" data-name="Group 158">
            <path id="Path_142" data-name="Path 142" d="M662.447,502.322c10.354,13.3,15.589,29.745,20.107,45.754,5.478,19.417,8.763,39.453,11.411,59.429.114.866,2.17.372,2.048-.549-2.677-20.205-6.048-40.425-11.589-60.062-4.487-15.9-9.814-32.242-20.094-45.445-.528-.678-2.49.095-1.883.873Z" transform="translate(-662.332 -501.189)" fill="#6a79a8"/>
          </g>
        </g>
        <g id="Group_161" data-name="Group 161" transform="translate(7.578 85.121)">
          <g id="Group_160" data-name="Group 160">
            <path id="Path_143" data-name="Path 143" d="M558.976,587.729a390.46,390.46,0,0,1,11.005-46.764c4.528-14.629,10.1-29.98,19.932-41.966.783-.955-1.181-1.006-1.664-.416-9.559,11.653-15.14,26.324-19.672,40.532a381.289,381.289,0,0,0-11.657,48.841c-.154.86,1.919.537,2.056-.227Z" transform="translate(-556.911 -498.198)" fill="#6a79a8"/>
          </g>
        </g>
        <g id="Group_162" data-name="Group 162" transform="translate(39.4 10.401)">
          <path id="Path_144" data-name="Path 144" d="M646.463,433.5c0-22.644-9.969-41-22.267-41s-22.267,18.357-22.267,41v4.058c0,12.555,1.068,21.3,2.936,27.392,3.839,12.515,18.867,17.739,18.867,17.739s15.387-5.126,19.327-16.313c2.157-6.124,3.4-15.247,3.4-28.818Z" transform="translate(-601.928 -392.498)" fill="#fff"/>
        </g>
        <g id="Group_163" data-name="Group 163" transform="translate(29.373)">
          <path id="Path_145" data-name="Path 145" d="M641.678,407.468c4.513-5.98,3.623-14.991-1.043-20.852s-12.377-8.748-19.868-8.83-14.807,2.352-21.57,5.575c-4.3,2.049-8.728,4.73-10.587,9.118-1.964,4.634-.429,10.266,2.974,13.975s8.369,5.681,13.353,6.385,10.049.255,15.061-.206c3.219-.3,6.52-.62,9.423-2.042s5.369-4.2,5.466-7.433Z" transform="translate(-587.743 -377.784)" fill="#bbdff5"/>
        </g>
        <g id="Group_165" data-name="Group 165" transform="translate(38.359 9.614)">
          <g id="Group_164" data-name="Group 164">
            <path id="Path_146" data-name="Path 146" d="M647.069,433.094c-.107-13.352-3.236-33.427-16.8-40.151-11.849-5.874-21.54,6.039-25.458,15.9a67.63,67.63,0,0,0-4.354,24.828c-.023,8.369.043,16.82,1.506,25.086,1.407,7.943,4.788,14.349,11.4,19.207,2.311,1.7,6.29,4.736,9.3,5.037,3.052.3,6.954-2.555,9.413-4.076A27.317,27.317,0,0,0,645.19,460.4c1.892-8.958,1.879-18.2,1.879-27.309,0-1.071-2.075-.766-2.075.156a181.3,181.3,0,0,1-.781,20.3c-.667,5.931-1.594,12.52-5.321,17.391A31.1,31.1,0,0,1,629,478.974c-1.594.874-3.561,2.217-5.4,2.23-2.063.014-4.2-1.539-5.944-2.6-6.856-4.176-11.426-10.049-13.159-17.916-1.6-7.246-1.912-14.757-1.965-22.152-.048-6.921.09-13.8,1.566-20.591,2.13-9.8,9.544-28.775,23-24.442,6.213,2,10.3,8.284,12.842,13.922,3.637,8.061,4.977,17.047,5.047,25.828C645,434.321,647.077,434.015,647.069,433.094Z" transform="translate(-600.456 -391.384)" fill="#6a79a8"/>
          </g>
        </g>
        <g id="Group_166" data-name="Group 166" transform="translate(34.751 96.408)">
          <path id="Path_147" data-name="Path 147" d="M642.793,515.533a33.372,33.372,0,0,1-10.306,9.133,47.293,47.293,0,0,1-5.189,2.644l-4.522-7.427c-.286-.47-1.347-1-1.85-.566-.414.356-3.745,5.1-4.86,6.234-.665.676-.99,1.341-1.978.947a7.621,7.621,0,0,1-1.672-1.34q-6.735-5.341-13.483-10.665c-1.45-1.147-4.894.959-3.055,2.415L612.86,530.34a2.514,2.514,0,0,0,3.2-.568l4.506-5.714,2.331,3.829c1.177,1.933,1.665,3.17,4.123,2.534,7.5-1.943,14.417-7.521,19.122-13.609C647.72,514.769,643.965,514.018,642.793,515.533Z" transform="translate(-595.351 -514.165)" fill="#f2f2f2"/>
        </g>
        <g id="Group_168" data-name="Group 168" transform="translate(36.945 95.186)">
          <g id="Group_167" data-name="Group 167">
            <path id="Path_148" data-name="Path 148" d="M621.858,517.547l-6.722,8.777,1.646-.291L600.287,512.6c-.692-.563-2.489.432-1.582,1.171L615.2,527.2a1.358,1.358,0,0,0,1.646-.291l6.723-8.777c.787-1.028-1.149-1.321-1.711-.588Z" transform="translate(-598.455 -512.436)" fill="#6a79a8"/>
          </g>
        </g>
        <g id="Group_170" data-name="Group 170" transform="translate(59.845 95.896)">
          <g id="Group_169" data-name="Group 169">
            <path id="Path_149" data-name="Path 149" d="M630.921,519l4.928,8.334c.144.242.6.217.821.206,2.408-.121,5.444-2.138,7.536-3.278A35.913,35.913,0,0,0,655.666,514c.586-.78-1.483-.686-1.923-.1a33.834,33.834,0,0,1-9.363,8.807,41.184,41.184,0,0,1-3.916,2.034,32.1,32.1,0,0,0-2.958,1.549c.4.088-.361-.807-.6-1.219l-1.623-2.744q-1.231-2.084-2.464-4.167c-.378-.639-2.364.037-1.894.832Z" transform="translate(-630.85 -513.441)" fill="#6a79a8"/>
          </g>
        </g>
        <g id="Group_172" data-name="Group 172" transform="translate(50.489 66.417)">
          <g id="Group_171" data-name="Group 171">
            <path id="Path_150" data-name="Path 150" d="M632.923,477.1c-2.172-7.3-12.427-6.885-15.3-.378-.1.235,1.793.112,2.013-.387,1.289-2.914,4.75-4.807,7.776-3.141a7.288,7.288,0,0,1,3.467,4.454c.119.4,2.161-.171,2.049-.549Z" transform="translate(-617.614 -471.738)" fill="#6a79a8"/>
          </g>
        </g>
        <g id="Group_174" data-name="Group 174" transform="translate(10.526 183.508)">
          <g id="Group_173" data-name="Group 173">
            <path id="Path_151" data-name="Path 151" d="M661.051,647.4c-16.74.124-33.721.618-50.412-.882a222.522,222.522,0,0,1-30.021-5.277c-4.853-1.12-9.682-2.374-14.55-3.423-1.293-.279-5.9-1.4-4.823,1.554.76,2.071,5.751,3.507,7.6,4.162,3.862,1.366,8.155,1.994,12.191,2.871a199.044,199.044,0,0,0,24.432,4c17.288,1.553,34.87,1.081,52.209.952,1.528-.011,4.627-.591,5.447-2.093C663.976,647.7,662.4,647.389,661.051,647.4Z" transform="translate(-561.082 -637.378)" fill="#a7d2e8"/>
          </g>
        </g>
        <g id="Group_176" data-name="Group 176" transform="translate(88.613 202.961)">
          <g id="Group_175" data-name="Group 175">
            <path id="Path_152" data-name="Path 152" d="M671.675,668.007a25.912,25.912,0,0,0,10.319,12.6,3.964,3.964,0,0,0,4.414-.341c.987-.779,1.632-2.449.3-3.291a22.039,22.039,0,0,1-8.888-10.618c-1.12-2.847-7.236-1.126-6.145,1.647Z" transform="translate(-671.546 -664.897)" fill="#a7d2e8"/>
          </g>
        </g>
        <g id="Group_178" data-name="Group 178" transform="translate(11.398 181.714)">
          <g id="Group_177" data-name="Group 177">
            <path id="Path_153" data-name="Path 153" d="M661.092,646.4c-16.2-.218-32.5-.314-48.645-1.732-15.686-1.379-31.289-6-46.525-9.8-.991-.247-4.592,1.341-3.349,1.651,15.252,3.8,30.852,8.389,46.547,9.846,16.363,1.518,32.916,1.573,49.338,1.794.932.013,4.664-1.733,2.633-1.761Z" transform="translate(-562.315 -634.84)" fill="#6a79a8"/>
          </g>
        </g>
        <g id="Group_180" data-name="Group 180" transform="translate(93.128 202.988)">
          <g id="Group_179" data-name="Group 179">
            <path id="Path_154" data-name="Path 154" d="M677.944,665.682a24.141,24.141,0,0,0,9.665,11.693c.508.32,2.253-.508,1.926-.715a23.786,23.786,0,0,1-9.542-11.527c-.206-.524-2.22.113-2.049.549Z" transform="translate(-677.933 -664.935)" fill="#6a79a8"/>
          </g>
        </g>
        <g id="Group_182" data-name="Group 182" transform="translate(6.352 104.421)">
          <g id="Group_181" data-name="Group 181">
            <path id="Path_155" data-name="Path 155" d="M575.105,525.649c-12.48,6.518-15.754,24.172-18.042,36.712-3.453,18.932-2.022,38.563,3.11,57.078.238.856,2.286.307,2.049-.549-4.867-17.557-6.619-36.48-3.49-54.494a126.826,126.826,0,0,1,4.731-19.723c2.346-6.8,5.828-14.465,12.512-17.955,1.243-.649.117-1.583-.87-1.068Z" transform="translate(-555.177 -525.5)" fill="#6a79a8"/>
          </g>
        </g>
        <g id="Group_195" data-name="Group 195" transform="translate(7.823 192.823)">
          <g id="Group_183" data-name="Group 183" transform="translate(2.781)">
            <path id="Path_156" data-name="Path 156" d="M569.384,652.836a16.144,16.144,0,0,1-7.127,9.755c-1.086.686-1.543,2.107-.394,2.939,1.245.9,3.242.291,4.39-.433a21.3,21.3,0,0,0,9.332-12.821c.705-2.738-5.553-1.952-6.2.561Z" transform="translate(-561.193 -650.555)" fill="#a7d2e8"/>
          </g>
          <g id="Group_184" data-name="Group 184" transform="translate(6.027 17.623)">
            <path id="Path_157" data-name="Path 157" d="M565.785,676.366q.083,2.189.168,4.379a8.208,8.208,0,0,0,.083,2.195c.2.52.887.481,1.432.313a1.612,1.612,0,0,0,1.034-.906,2.731,2.731,0,0,0-.073-1.67,18.73,18.73,0,0,1-.6-4.86C567.808,675.151,565.755,675.563,565.785,676.366Z" transform="translate(-565.785 -675.485)" fill="#a7d2e8"/>
          </g>
          <g id="Group_185" data-name="Group 185" transform="translate(10.427 14.211)">
            <path id="Path_158" data-name="Path 158" d="M572.112,671.656l2.121,1.767a.944.944,0,0,0,1.547-.638c.08-.808-1.2-1.465-1.767-1.935a1.381,1.381,0,0,0-1.357-.025C572.447,670.914,571.748,671.353,572.112,671.656Z" transform="translate(-572.009 -670.658)" fill="#a7d2e8"/>
          </g>
          <g id="Group_186" data-name="Group 186" transform="translate(1.299 19.281)">
            <path id="Path_159" data-name="Path 159" d="M559.969,678.445c-.2.469-.909,1.5-.872,1.994.056.766,1.147.928,1.6.47A9.756,9.756,0,0,0,562,678.1c.158-.363-.694-.267-.832-.243C560.817,677.917,560.134,678.069,559.969,678.445Z" transform="translate(-559.096 -677.831)" fill="#a7d2e8"/>
          </g>
          <g id="Group_188" data-name="Group 188" transform="translate(3.504 0.553)">
            <g id="Group_187" data-name="Group 187">
              <path id="Path_160" data-name="Path 160" d="M570.462,652.066a17.886,17.886,0,0,1-7.853,10.812c-1.171.739.574,1.193,1.3.732a19.556,19.556,0,0,0,8.607-11.763c.216-.839-1.86-.555-2.059.218Z" transform="translate(-562.215 -651.338)" fill="#6a79a8"/>
            </g>
          </g>
          <g id="Group_190" data-name="Group 190" transform="translate(4.951 17.02)">
            <g id="Group_189" data-name="Group 189">
              <path id="Path_161" data-name="Path 161" d="M564.263,675.514q.134,3.536.271,7.073c.025.666,2.079.254,2.048-.549q-.135-3.536-.271-7.072c-.025-.667-2.079-.255-2.048.549Z" transform="translate(-564.263 -674.633)" fill="#6a79a8"/>
            </g>
          </g>
          <g id="Group_192" data-name="Group 192" transform="translate(8.66 14.211)">
            <g id="Group_191" data-name="Group 191">
              <path id="Path_162" data-name="Path 162" d="M569.612,671.656l2.121,1.767a1.381,1.381,0,0,0,1.357.026c.209-.089.908-.528.544-.831l-2.121-1.767a1.381,1.381,0,0,0-1.357-.025c-.209.089-.908.528-.544.831Z" transform="translate(-569.509 -670.658)" fill="#6a79a8"/>
            </g>
          </g>
          <g id="Group_194" data-name="Group 194" transform="translate(0 18.679)">
            <g id="Group_193" data-name="Group 193">
              <path id="Path_163" data-name="Path 163" d="M558.355,677.593l-1.077,2.467c-.158.363.694.266.832.243.346-.057,1.029-.209,1.194-.585q.538-1.233,1.076-2.467c.158-.363-.694-.266-.832-.243-.346.057-1.029.208-1.193.585Z" transform="translate(-557.258 -676.979)" fill="#6a79a8"/>
            </g>
          </g>
        </g>
        <g id="Group_202" data-name="Group 202" transform="translate(97.532 109.882)">
          <g id="Group_197" data-name="Group 197">
            <g id="Group_196" data-name="Group 196">
              <path id="Path_164" data-name="Path 164" d="M684.169,533.914a235.629,235.629,0,0,1,25.029,40.7,232.849,232.849,0,0,1,9.584,22.958c1.323,3.716,2.65,7.471,3.692,11.278,1.092,3.992.691,7.662,0,11.691l1.991-.616c-.983-.5-1.994-.866-2.977-1.362-.518-.262-2.126.586-1.935.682.983.5,1.993.866,2.977,1.363.408.205,1.9-.082,1.991-.616.643-3.766,1.122-7.306.165-11.061-.971-3.816-2.331-7.577-3.641-11.287a233.3,233.3,0,0,0-34.833-64.28c-.36-.472-2.175.383-2.048.549Z" transform="translate(-684.162 -533.225)" fill="#6a79a8"/>
            </g>
          </g>
          <g id="Group_199" data-name="Group 199" transform="translate(38.355 86.931)">
            <g id="Group_198" data-name="Group 198">
              <path id="Path_165" data-name="Path 165" d="M742.231,660.634l-1.722-4.014c-.368-.859-2.4-.264-2.049.549l1.722,4.014c.368.859,2.4.264,2.049-.549Z" transform="translate(-738.42 -656.2)" fill="#6a79a8"/>
            </g>
          </g>
          <g id="Group_201" data-name="Group 201" transform="translate(39.845 88.19)">
            <g id="Group_200" data-name="Group 200">
              <path id="Path_166" data-name="Path 166" d="M744.885,659.75l-2.356-1.649c-.35-.245-.972-.063-1.33.074-.134.052-.922.423-.591.655l2.356,1.649c.35.245.972.063,1.33-.075.134-.051.922-.423.591-.655Z" transform="translate(-740.527 -657.98)" fill="#6a79a8"/>
            </g>
          </g>
        </g>
        <g id="Group_208" data-name="Group 208" transform="translate(69.17 121.768)">
          <g id="Group_204" data-name="Group 204" transform="translate(0.718 0.659)">
            <g id="Group_203" data-name="Group 203">
              <path id="Path_167" data-name="Path 167" d="M645.157,552.194c.379.744,1.708.667,2.387.736,1.084.109,2.173.179,3.262.193,2.085.028,4.235-.716,6.281-.573a4.534,4.534,0,0,0,2.211-.63c.556-.349.351-.96-.318-.943a13.315,13.315,0,0,0-1.657.175,24.447,24.447,0,0,1-3.207.412,33.9,33.9,0,0,1-6.185-.549,4.6,4.6,0,0,0-2.326.32c-.373.141-.606.171-.537.585A.915.915,0,0,0,645.157,552.194Z" transform="translate(-645.057 -550.972)" fill="#f2f2f2"/>
            </g>
          </g>
          <g id="Group_206" data-name="Group 206">
            <g id="Group_205" data-name="Group 205">
              <path id="Path_168" data-name="Path 168" d="M644.429,551.213a48.781,48.781,0,0,0,6.7.6c2.291.028,4.615-.718,6.878-.573.8.051,2.171-1.095.791-1.183-2.057-.132-4.139.542-6.195.575a41.8,41.8,0,0,1-6.927-.549c-.665-.1-2.408.954-1.25,1.13Z" transform="translate(-644.042 -550.04)" fill="#6a79a8"/>
            </g>
          </g>
          <g id="Group_207" data-name="Group 207" transform="translate(5.921 4.667)">
            <ellipse id="Ellipse_1" data-name="Ellipse 1" cx="1.767" cy="1.767" rx="1.767" ry="1.767" fill="#6a79a8"/>
          </g>
        </g>
      </g>
      <g id="Group_216" data-name="Group 216" transform="translate(494.333 208.171)">
        <g id="Group_210" data-name="Group 210" transform="translate(81.079 105.447)">
          <path id="Path_169" data-name="Path 169" d="M787.751,399.122a1.13,1.13,0,0,0,.7-.222c.356-.409-.428-1.227-.634-1.639l-.91-1.827q-1.006-2.019-2.011-4.038l-2.42-4.863c-.4-.806-.915-2.924-2.056-2.194-.751.481-1.428,2.03-2.008,2.746a31.714,31.714,0,0,1-5.014,4.936c-.66.518-1.354.717-.9,1.588a4.59,4.59,0,0,0,1.786,1.776,25.058,25.058,0,0,0,11.3,3.677A16.806,16.806,0,0,0,787.751,399.122Z" transform="translate(-772.348 -384.189)" fill="#ffbbab"/>
        </g>
        <g id="Group_211" data-name="Group 211" transform="translate(0)">
          <ellipse id="Ellipse_2" data-name="Ellipse 2" cx="92.227" cy="54.606" rx="92.227" ry="54.606" fill="#ffbbab"/>
        </g>
        <g id="Group_213" data-name="Group 213" transform="translate(53.378 116.384)">
          <g id="Group_212" data-name="Group 212">
            <path id="Path_170" data-name="Path 170" d="M750.4,614.516c-4.951-4.22-8.107-10.444-10.121-16.536s-3.345-13.424-1.086-19.639c2.741-7.538,10.575-12.287,15.352-18.454a40.938,40.938,0,0,0,8.171-21c.8-8.095-1.062-16.37-3.008-24.193-2.207-8.866-7-15.281-12.511-22.376-10.3-13.27-17.721-33.282-6.267-48.18,5.389-7.01,12.034-13.015,17.5-20,5.667-7.247,10.334-15.2,11.8-24.4.031-.194-1.951-.061-2.049.549-2.825,17.688-16.952,29.539-27.881,42.51a28.613,28.613,0,0,0-7.126,20.231,47.527,47.527,0,0,0,8.41,25c4.875,7.185,11.362,13.31,14.4,21.607a81.819,81.819,0,0,1,3.152,12.532,70.786,70.786,0,0,1,1.737,12.273,41.428,41.428,0,0,1-7.039,24.014c-4.632,6.773-12.466,11.4-16.085,18.874-3,6.188-1.755,13.993.192,20.289,2,6.471,5.291,13.115,10.524,17.575.406.346,2.213-.449,1.933-.687Z" transform="translate(-733.162 -399.661)" fill="#6a79a8"/>
          </g>
        </g>
        <g id="Group_214" data-name="Group 214" transform="translate(81.931 106.035)">
          <path id="Path_171" data-name="Path 171" d="M787.872,398.522c.2.117.38.166.494.1.327-.2.1-.545.012-.8a46.986,46.986,0,0,0-2.406-4.832l-3.009-6.043c-.33-.663-.753-2.4-1.691-1.8-.617.4-1.174,1.67-1.652,2.259a26.074,26.074,0,0,1-4.123,4.06q-.8.629-1.648,1.195c-.594.4-.192,1.011.3,1.12a13.634,13.634,0,0,0,2.2-.088,17.444,17.444,0,0,1,9.789,3.37A16.765,16.765,0,0,0,787.872,398.522Z" transform="translate(-773.553 -385.021)" fill="#ff9c81"/>
        </g>
        <g id="Group_215" data-name="Group 215" transform="translate(5.598 5.386)">
          <ellipse id="Ellipse_3" data-name="Ellipse 3" cx="88.75" cy="50.98" rx="88.75" ry="50.98" fill="#ff9c81"/>
        </g>
      </g>
    </g>
    <text id="No_Result" data-name="No Result" transform="translate(974 329)" fill="#fff" font-size="28" font-family="Lato-Black, Lato" font-weight="800"><tspan x="0" y="0">No Result</tspan></text>
  </g>
</svg>
