<svg xmlns="http://www.w3.org/2000/svg" width="1170" height="570"><defs><clipPath id="a"><path data-name="Path 139" d="M556.839 589.769c6.93-41.92 25.552-123.324 63.637-103.585 24.266 12.576 37.017 65.191 43.716 116.7 0 0-44.174-.336-58.75-2.228-12.348-1.604-48.603-10.887-48.603-10.887z" transform="translate(-556.839 -483.149)" fill="#fff"/></clipPath></defs><g data-name="Group 218" transform="translate(-388 -199)"><rect data-name="Rectangle 1" width="1170" height="570" rx="3" transform="translate(388 199)" fill="none"/><g data-name="Group 217"><g data-name="Group 1"><path data-name="Path 1" d="M767.063 759.336c-18.071-2.9-235.2-29.035-219.218-221.785s36.045-250.715 120.462-271.922 289.615-121.557 450.638-26.14 334.78 181 265.828 333.35-80.242 203.175-260.143 195.4-271.64 4.894-357.567-8.903z" fill="#f7fbfc"/></g><g data-name="Group 14"><g data-name="Group 2"><path data-name="Path 2" d="M1115.828 723.614l-95.739-36.459 4.039-1.919c12.815-7.012 20.342-15.526 20.342-24.7 0-23.9-51.061-43.344-113.823-43.344s-113.822 19.444-113.822 43.344 51.061 43.345 113.822 43.345c28.165 0 53.966-3.919 73.86-10.4l95.22 36.26a26.154 26.154 0 0016.1 0c4.448-1.688 4.448-4.433.001-6.127zm-185.184-29.1c-49.2 0-89.232-15.244-89.232-33.98s40.029-33.98 89.232-33.98 89.232 15.244 89.232 33.98-40.03 33.985-89.233 33.985z" fill="#def3f9"/></g><g data-name="Group 7"><g data-name="Group 3"><path data-name="Path 3" d="M1113.708 717.959l-95.739-36.459 4.039-1.919c12.815-7.012 20.342-15.526 20.342-24.7 0-23.9-51.061-43.344-113.823-43.344s-113.822 19.444-113.822 43.344 51.061 43.344 113.822 43.344c28.165 0 53.966-3.919 73.86-10.4l95.22 36.26a26.155 26.155 0 0016.1 0c4.448-1.687 4.448-4.432.001-6.126zm-274.417-63.076c0-18.736 40.029-33.98 89.232-33.98s89.232 15.244 89.232 33.98-40.03 33.98-89.232 33.98-89.232-15.243-89.232-33.98z" fill="#fff"/></g><g data-name="Group 6"><g data-name="Group 4"><path data-name="Path 4" d="M1114.292 717.245l-83.862-31.935-11.881-4.524-.122 1.352c9.477-4.5 20.388-11.018 23.964-21.545 2.514-7.4-.246-14.684-5.286-20.259-6.348-7.023-15.132-11.666-23.754-15.282-12.381-5.191-25.583-8.426-38.8-10.64a278.287 278.287 0 00-95.289.628c-12.8 2.341-25.552 5.686-37.475 10.963-8.32 3.682-16.892 8.46-22.759 15.595-4.282 5.208-6.608 11.85-4.621 18.5 2.2 7.353 8.463 12.891 14.654 16.98 9.657 6.379 20.8 10.457 31.892 13.541a233.023 233.023 0 0044.153 7.485c31.418 2.473 64.26.611 94.541-8.618 2.3-.7 1.936-1.024 4-.237l5.692 2.167 19.91 7.582 49.418 18.818c10.668 4.063 24.534 11.9 36 6.685 4.555-2.071 3.915-5.387-.387-7.262-.9-.393-2.373.9-1.17 1.429 1.947.848 2.989 1.045 1.878 3.025-.85 1.514-1.326 1.66-3.016 2.136a23.1 23.1 0 01-6.248.745 23.44 23.44 0 01-7.672-1.249c-.921-.317-1.827-.695-2.737-1.042l-14.429-5.495-45.546-17.345c-10.463-3.984-20.862-8.4-31.471-11.984-1.735-.586-2.695-.035-4.624.553a192.82 192.82 0 01-19.181 4.726 265.162 265.162 0 01-46.05 4.652c-28.427.511-58.15-2.335-84.931-12.428-12.865-4.849-35.757-15.271-33.169-32.643 1.1-7.413 6.994-13.147 12.818-17.3 8.965-6.4 19.576-10.465 30.063-13.584 28.284-8.41 58.72-10.392 88.06-8.539 25.248 1.595 52.568 5.724 74.97 18.231 6.994 3.905 14.426 9.148 17.845 16.672 4.491 9.885-1.558 19.29-9.341 25.415a66.52 66.52 0 01-12.837 7.647c-.573.272-.854 1.073-.122 1.352l83.861 31.935 11.881 4.524c.924.35 2.403-.962 1.18-1.427z" fill="#6a79a8"/></g><g data-name="Group 5"><path data-name="Path 5" d="M840.33 654.814c.184-9.64 9.856-15.94 17.542-19.8 12.888-6.47 27.473-9.646 41.684-11.5a224 224 0 0152.718-.576c14.87 1.59 30 4.547 43.708 10.7 7.923 3.557 18.295 9.271 20.409 18.54 2.066 9.059-6.087 16.114-13.01 20.271-12.034 7.226-26.349 10.736-40.077 12.957a220.873 220.873 0 01-52.4 1.991c-16.631-1.3-33.672-4.2-49.046-10.915-8.739-3.817-21.321-10.628-21.532-21.668-.021-1.107-2.1-.826-2.08.138.179 9.372 8.729 15.809 16.211 19.911 12.965 7.108 27.955 10.553 42.481 12.627a224.924 224.924 0 0056.8.765c15.268-1.723 30.882-4.868 44.844-11.494 7.927-3.762 17.786-9.681 19.865-18.967 1.985-8.863-5.131-16.069-11.908-20.521-11.7-7.682-25.965-11.431-39.584-13.89a221.1 221.1 0 00-56.319-2.571c-17.689 1.382-36.039 4.53-52.188 12.194-8.652 4.106-20 11.1-20.206 21.946-.013 1.105 2.07.833 2.088-.138z" fill="#6a79a8"/></g></g></g><g data-name="Group 9"><g data-name="Group 8"><path data-name="Path 6" d="M1012.282 701.572l82.592 31.452a27.97 27.97 0 008.869 1.982c2.524.107 16.737-.717 13.944-6.114-.256-.494-2.21.237-2.049.549 2.731 5.274-12.044 4.887-15.133 4.135a22.853 22.853 0 01-2.475-.781c-1.558-.571-3.1-1.181-4.653-1.771l-19.057-7.257-48.378-18.423-11.729-4.466c-.561-.214-2.111.626-1.931.694z" fill="#6a79a8"/></g></g><g data-name="Group 11"><g data-name="Group 10"><path data-name="Path 7" d="M884.71 635.211a215.5 215.5 0 0171.061-2.7c17.627 2.191 37.344 6.174 51.87 17.08.65.488 2.488-.442 1.6-1.111-14.772-11.09-34.8-15.107-52.726-17.335a218.745 218.745 0 00-72.141 2.806c-1.273.271-.921 1.529.338 1.261z" fill="#6a79a8"/></g></g><g data-name="Group 13"><g data-name="Group 12"><path data-name="Path 8" d="M813.676 662.735c.117 7.872 5.457 14.231 11.366 18.874 8.894 6.99 19.8 11.385 30.506 14.73 30.624 9.571 63.976 11.542 95.818 9.1 17.623-1.349 35.236-4.222 52.095-9.622 1.176-.377.99-1.214-.221-.826-31.209 10-65.243 12.006-97.75 9.343a229.257 229.257 0 01-44.449-7.74c-10.995-3.152-22.11-7.287-31.553-13.869-6.884-4.8-13.63-11.626-13.763-20.543-.008-.487-2.059-.139-2.049.548z" fill="#6a79a8"/></g></g></g><g data-name="Group 209"><g data-name="Group 15"><path data-name="Path 9" d="M976.982 558.896c7.319 56.265 7.417 111.211 7.417 111.211s-32.413-72.718-63.371-76.537-57.886 60.056-57.886 60.056 1.665-63.259 3.167-84.293c.423-5.931 1.011-9.584 3.32-23.551 0 0 36.25 9.378 48.6 10.983 14.58 1.895 58.753 2.131 58.753 2.131z" fill="#bbdff5"/></g><g data-name="Group 154"><path data-name="Path 10" d="M869.632 545.782c6.93-41.92 25.552-123.324 63.637-103.585 24.266 12.576 37.017 65.191 43.716 116.7 0 0-44.174-.336-58.75-2.228-12.348-1.604-48.603-10.887-48.603-10.887z" fill="#fff"/><g data-name="Group 153" clip-path="url(#a)" transform="translate(869.632 439.162)"><g data-name="Group 152"><g data-name="Group 32"><g data-name="Group 16"><path data-name="Path 11" d="M3.904 27.789a1.413 1.413 0 01-1.414-1.414v-7.069a1.414 1.414 0 112.828 0v7.069a1.414 1.414 0 01-1.414 1.414z" fill="#def3f9"/></g><g data-name="Group 17"><path data-name="Path 12" d="M10.973 27.789a1.413 1.413 0 01-1.414-1.414v-7.069a1.414 1.414 0 112.828 0v7.069a1.414 1.414 0 01-1.414 1.414z" fill="#def3f9"/></g><g data-name="Group 18"><path data-name="Path 13" d="M18.042 27.789a1.413 1.413 0 01-1.414-1.414v-7.069a1.414 1.414 0 112.828 0v7.069a1.414 1.414 0 01-1.414 1.414z" fill="#def3f9"/></g><g data-name="Group 19"><path data-name="Path 14" d="M25.111 27.789a1.413 1.413 0 01-1.414-1.414v-7.069a1.414 1.414 0 112.828 0v7.069a1.414 1.414 0 01-1.414 1.414z" fill="#def3f9"/></g><g data-name="Group 20"><path data-name="Path 15" d="M32.18 27.789a1.413 1.413 0 01-1.414-1.414v-7.069a1.414 1.414 0 112.828 0v7.069a1.414 1.414 0 01-1.414 1.414z" fill="#def3f9"/></g><g data-name="Group 21"><path data-name="Path 16" d="M39.249 27.789a1.413 1.413 0 01-1.414-1.414v-7.069a1.414 1.414 0 012.828 0v7.069a1.414 1.414 0 01-1.414 1.414z" fill="#def3f9"/></g><g data-name="Group 22"><path data-name="Path 17" d="M46.318 27.789a1.413 1.413 0 01-1.414-1.414v-7.069a1.414 1.414 0 012.828 0v7.069a1.414 1.414 0 01-1.414 1.414z" fill="#def3f9"/></g><g data-name="Group 23"><path data-name="Path 18" d="M53.387 27.789a1.413 1.413 0 01-1.414-1.414v-7.069a1.414 1.414 0 112.828 0v7.069a1.414 1.414 0 01-1.414 1.414z" fill="#def3f9"/></g><g data-name="Group 24"><path data-name="Path 19" d="M60.456 27.789a1.413 1.413 0 01-1.414-1.414v-7.069a1.414 1.414 0 012.828 0v7.069a1.414 1.414 0 01-1.414 1.414z" fill="#def3f9"/></g><g data-name="Group 25"><path data-name="Path 20" d="M67.525 27.789a1.413 1.413 0 01-1.414-1.414v-7.069a1.414 1.414 0 112.828 0v7.069a1.414 1.414 0 01-1.414 1.414z" fill="#def3f9"/></g><g data-name="Group 26"><path data-name="Path 21" d="M74.594 27.789a1.413 1.413 0 01-1.414-1.414v-7.069a1.414 1.414 0 112.828 0v7.069a1.414 1.414 0 01-1.414 1.414z" fill="#def3f9"/></g><g data-name="Group 27"><path data-name="Path 22" d="M81.663 27.789a1.413 1.413 0 01-1.414-1.414v-7.069a1.414 1.414 0 012.828 0v7.069a1.414 1.414 0 01-1.414 1.414z" fill="#def3f9"/></g><g data-name="Group 28"><path data-name="Path 23" d="M88.732 27.789a1.413 1.413 0 01-1.414-1.414v-7.069a1.414 1.414 0 112.828 0v7.069a1.414 1.414 0 01-1.414 1.414z" fill="#def3f9"/></g><g data-name="Group 29"><path data-name="Path 24" d="M95.801 27.789a1.413 1.413 0 01-1.414-1.414v-7.069a1.414 1.414 0 012.828 0v7.069a1.414 1.414 0 01-1.414 1.414z" fill="#def3f9"/></g><g data-name="Group 30"><path data-name="Path 25" d="M102.87 27.789a1.413 1.413 0 01-1.414-1.414v-7.069a1.414 1.414 0 112.828 0v7.069a1.414 1.414 0 01-1.414 1.414z" fill="#def3f9"/></g><g data-name="Group 31"><path data-name="Path 26" d="M109.939 27.789a1.413 1.413 0 01-1.414-1.414v-7.069a1.414 1.414 0 112.827 0v7.069a1.414 1.414 0 01-1.413 1.414z" fill="#def3f9"/></g></g><g data-name="Group 49"><g data-name="Group 33"><path data-name="Path 27" d="M.369 41.926a1.413 1.413 0 01-1.414-1.414v-7.069a1.414 1.414 0 012.828 0v7.069a1.414 1.414 0 01-1.414 1.414z" fill="#def3f9"/></g><g data-name="Group 34"><path data-name="Path 28" d="M7.438 41.926a1.413 1.413 0 01-1.414-1.414v-7.069a1.414 1.414 0 012.828 0v7.069a1.414 1.414 0 01-1.414 1.414z" fill="#def3f9"/></g><g data-name="Group 35"><path data-name="Path 29" d="M14.507 41.926a1.413 1.413 0 01-1.414-1.414v-7.069a1.414 1.414 0 012.828 0v7.069a1.414 1.414 0 01-1.414 1.414z" fill="#def3f9"/></g><g data-name="Group 36"><path data-name="Path 30" d="M21.576 41.926a1.413 1.413 0 01-1.414-1.414v-7.069a1.414 1.414 0 012.828 0v7.069a1.414 1.414 0 01-1.414 1.414z" fill="#def3f9"/></g><g data-name="Group 37"><path data-name="Path 31" d="M28.645 41.926a1.413 1.413 0 01-1.414-1.414v-7.069a1.414 1.414 0 012.828 0v7.069a1.414 1.414 0 01-1.414 1.414z" fill="#def3f9"/></g><g data-name="Group 38"><path data-name="Path 32" d="M35.714 41.926a1.413 1.413 0 01-1.414-1.414v-7.069a1.414 1.414 0 012.828 0v7.069a1.414 1.414 0 01-1.414 1.414z" fill="#def3f9"/></g><g data-name="Group 39"><path data-name="Path 33" d="M42.783 41.926a1.413 1.413 0 01-1.414-1.414v-7.069a1.414 1.414 0 012.827 0v7.069a1.414 1.414 0 01-1.413 1.414z" fill="#def3f9"/></g><g data-name="Group 40"><path data-name="Path 34" d="M49.852 41.926a1.413 1.413 0 01-1.414-1.414v-7.069a1.414 1.414 0 012.828 0v7.069a1.414 1.414 0 01-1.414 1.414z" fill="#def3f9"/></g><g data-name="Group 41"><path data-name="Path 35" d="M56.921 41.926a1.413 1.413 0 01-1.414-1.414v-7.069a1.414 1.414 0 012.827 0v7.069a1.414 1.414 0 01-1.413 1.414z" fill="#def3f9"/></g><g data-name="Group 42"><path data-name="Path 36" d="M63.99 41.926a1.413 1.413 0 01-1.414-1.414v-7.069a1.414 1.414 0 112.827 0v7.069a1.414 1.414 0 01-1.413 1.414z" fill="#def3f9"/></g><g data-name="Group 43"><path data-name="Path 37" d="M71.059 41.926a1.413 1.413 0 01-1.414-1.414v-7.069a1.414 1.414 0 012.828 0v7.069a1.414 1.414 0 01-1.414 1.414z" fill="#def3f9"/></g><g data-name="Group 44"><path data-name="Path 38" d="M78.128 41.926a1.413 1.413 0 01-1.414-1.414v-7.069a1.414 1.414 0 012.828 0v7.069a1.414 1.414 0 01-1.414 1.414z" fill="#def3f9"/></g><g data-name="Group 45"><path data-name="Path 39" d="M85.197 41.926a1.413 1.413 0 01-1.414-1.414v-7.069a1.414 1.414 0 012.828 0v7.069a1.414 1.414 0 01-1.414 1.414z" fill="#def3f9"/></g><g data-name="Group 46"><path data-name="Path 40" d="M92.266 41.926a1.413 1.413 0 01-1.414-1.414v-7.069a1.414 1.414 0 012.828 0v7.069a1.414 1.414 0 01-1.414 1.414z" fill="#def3f9"/></g><g data-name="Group 47"><path data-name="Path 41" d="M99.335 41.926a1.413 1.413 0 01-1.414-1.414v-7.069a1.414 1.414 0 012.828 0v7.069a1.414 1.414 0 01-1.414 1.414z" fill="#def3f9"/></g><g data-name="Group 48"><path data-name="Path 42" d="M106.404 41.926a1.413 1.413 0 01-1.414-1.414v-7.069a1.414 1.414 0 012.828 0v7.069a1.414 1.414 0 01-1.414 1.414z" fill="#def3f9"/></g></g><g data-name="Group 66"><g data-name="Group 50"><path data-name="Path 43" d="M3.904 56.065a1.413 1.413 0 01-1.414-1.414v-7.069a1.414 1.414 0 012.828 0v7.069a1.414 1.414 0 01-1.414 1.414z" fill="#def3f9"/></g><g data-name="Group 51"><path data-name="Path 44" d="M10.973 56.065a1.413 1.413 0 01-1.414-1.414v-7.069a1.414 1.414 0 012.828 0v7.069a1.414 1.414 0 01-1.414 1.414z" fill="#def3f9"/></g><g data-name="Group 52"><path data-name="Path 45" d="M18.042 56.065a1.413 1.413 0 01-1.414-1.414v-7.069a1.414 1.414 0 012.828 0v7.069a1.414 1.414 0 01-1.414 1.414z" fill="#def3f9"/></g><g data-name="Group 53"><path data-name="Path 46" d="M25.111 56.065a1.413 1.413 0 01-1.414-1.414v-7.069a1.414 1.414 0 012.828 0v7.069a1.414 1.414 0 01-1.414 1.414z" fill="#def3f9"/></g><g data-name="Group 54"><path data-name="Path 47" d="M32.18 56.065a1.413 1.413 0 01-1.414-1.414v-7.069a1.414 1.414 0 012.828 0v7.069a1.414 1.414 0 01-1.414 1.414z" fill="#def3f9"/></g><g data-name="Group 55"><path data-name="Path 48" d="M39.249 56.065a1.413 1.413 0 01-1.414-1.414v-7.069a1.414 1.414 0 012.828 0v7.069a1.414 1.414 0 01-1.414 1.414z" fill="#def3f9"/></g><g data-name="Group 56"><path data-name="Path 49" d="M46.318 56.065a1.413 1.413 0 01-1.414-1.414v-7.069a1.414 1.414 0 012.828 0v7.069a1.414 1.414 0 01-1.414 1.414z" fill="#def3f9"/></g><g data-name="Group 57"><path data-name="Path 50" d="M53.387 56.065a1.413 1.413 0 01-1.414-1.414v-7.069a1.414 1.414 0 012.828 0v7.069a1.414 1.414 0 01-1.414 1.414z" fill="#def3f9"/></g><g data-name="Group 58"><path data-name="Path 51" d="M60.456 56.065a1.413 1.413 0 01-1.414-1.414v-7.069a1.414 1.414 0 012.828 0v7.069a1.414 1.414 0 01-1.414 1.414z" fill="#def3f9"/></g><g data-name="Group 59"><path data-name="Path 52" d="M67.525 56.065a1.413 1.413 0 01-1.414-1.414v-7.069a1.414 1.414 0 012.828 0v7.069a1.414 1.414 0 01-1.414 1.414z" fill="#def3f9"/></g><g data-name="Group 60"><path data-name="Path 53" d="M74.594 56.065a1.413 1.413 0 01-1.414-1.414v-7.069a1.414 1.414 0 012.828 0v7.069a1.414 1.414 0 01-1.414 1.414z" fill="#def3f9"/></g><g data-name="Group 61"><path data-name="Path 54" d="M81.663 56.065a1.413 1.413 0 01-1.414-1.414v-7.069a1.414 1.414 0 012.828 0v7.069a1.414 1.414 0 01-1.414 1.414z" fill="#def3f9"/></g><g data-name="Group 62"><path data-name="Path 55" d="M88.732 56.065a1.413 1.413 0 01-1.414-1.414v-7.069a1.414 1.414 0 012.828 0v7.069a1.414 1.414 0 01-1.414 1.414z" fill="#def3f9"/></g><g data-name="Group 63"><path data-name="Path 56" d="M95.801 56.065a1.413 1.413 0 01-1.414-1.414v-7.069a1.414 1.414 0 012.828 0v7.069a1.414 1.414 0 01-1.414 1.414z" fill="#def3f9"/></g><g data-name="Group 64"><path data-name="Path 57" d="M102.87 56.065a1.413 1.413 0 01-1.414-1.414v-7.069a1.414 1.414 0 012.828 0v7.069a1.414 1.414 0 01-1.414 1.414z" fill="#def3f9"/></g><g data-name="Group 65"><path data-name="Path 58" d="M109.939 56.065a1.413 1.413 0 01-1.414-1.414v-7.069a1.414 1.414 0 012.827 0v7.069a1.414 1.414 0 01-1.413 1.414z" fill="#def3f9"/></g></g><g data-name="Group 83"><g data-name="Group 67"><path data-name="Path 59" d="M.369 70.203a1.413 1.413 0 01-1.414-1.414V61.72a1.414 1.414 0 112.828 0v7.069a1.414 1.414 0 01-1.414 1.414z" fill="#def3f9"/></g><g data-name="Group 68"><path data-name="Path 60" d="M7.438 70.203a1.413 1.413 0 01-1.414-1.414V61.72a1.414 1.414 0 112.828 0v7.069a1.414 1.414 0 01-1.414 1.414z" fill="#def3f9"/></g><g data-name="Group 69"><path data-name="Path 61" d="M14.507 70.203a1.413 1.413 0 01-1.414-1.414V61.72a1.414 1.414 0 112.828 0v7.069a1.414 1.414 0 01-1.414 1.414z" fill="#def3f9"/></g><g data-name="Group 70"><path data-name="Path 62" d="M21.576 70.203a1.414 1.414 0 01-1.414-1.414V61.72a1.414 1.414 0 112.828 0v7.069a1.414 1.414 0 01-1.414 1.414z" fill="#def3f9"/></g><g data-name="Group 71"><path data-name="Path 63" d="M28.645 70.203a1.413 1.413 0 01-1.414-1.414V61.72a1.414 1.414 0 112.828 0v7.069a1.414 1.414 0 01-1.414 1.414z" fill="#def3f9"/></g><g data-name="Group 72"><path data-name="Path 64" d="M35.714 70.203a1.414 1.414 0 01-1.414-1.414V61.72a1.414 1.414 0 112.828 0v7.069a1.414 1.414 0 01-1.414 1.414z" fill="#def3f9"/></g><g data-name="Group 73"><path data-name="Path 65" d="M42.783 70.203a1.413 1.413 0 01-1.414-1.414V61.72a1.414 1.414 0 112.827 0v7.069a1.414 1.414 0 01-1.413 1.414z" fill="#def3f9"/></g><g data-name="Group 74"><path data-name="Path 66" d="M49.852 70.203a1.414 1.414 0 01-1.414-1.414V61.72a1.414 1.414 0 112.828 0v7.069a1.414 1.414 0 01-1.414 1.414z" fill="#def3f9"/></g><g data-name="Group 75"><path data-name="Path 67" d="M56.921 70.203a1.413 1.413 0 01-1.414-1.414V61.72a1.414 1.414 0 112.827 0v7.069a1.414 1.414 0 01-1.413 1.414z" fill="#def3f9"/></g><g data-name="Group 76"><path data-name="Path 68" d="M63.99 70.203a1.413 1.413 0 01-1.414-1.414V61.72a1.414 1.414 0 112.827 0v7.069a1.414 1.414 0 01-1.413 1.414z" fill="#def3f9"/></g><g data-name="Group 77"><path data-name="Path 69" d="M71.059 70.203a1.413 1.413 0 01-1.414-1.414V61.72a1.414 1.414 0 112.828 0v7.069a1.414 1.414 0 01-1.414 1.414z" fill="#def3f9"/></g><g data-name="Group 78"><path data-name="Path 70" d="M78.128 70.203a1.413 1.413 0 01-1.414-1.414V61.72a1.414 1.414 0 112.828 0v7.069a1.414 1.414 0 01-1.414 1.414z" fill="#def3f9"/></g><g data-name="Group 79"><path data-name="Path 71" d="M85.197 70.203a1.413 1.413 0 01-1.414-1.414V61.72a1.414 1.414 0 112.828 0v7.069a1.414 1.414 0 01-1.414 1.414z" fill="#def3f9"/></g><g data-name="Group 80"><path data-name="Path 72" d="M92.266 70.203a1.413 1.413 0 01-1.414-1.414V61.72a1.414 1.414 0 112.828 0v7.069a1.414 1.414 0 01-1.414 1.414z" fill="#def3f9"/></g><g data-name="Group 81"><path data-name="Path 73" d="M99.335 70.203a1.413 1.413 0 01-1.414-1.414V61.72a1.414 1.414 0 112.828 0v7.069a1.414 1.414 0 01-1.414 1.414z" fill="#def3f9"/></g><g data-name="Group 82"><path data-name="Path 74" d="M106.404 70.203a1.413 1.413 0 01-1.414-1.414V61.72a1.414 1.414 0 112.828 0v7.069a1.414 1.414 0 01-1.414 1.414z" fill="#def3f9"/></g></g><g data-name="Group 100"><g data-name="Group 84"><path data-name="Path 75" d="M3.904 84.341a1.413 1.413 0 01-1.414-1.414v-7.069a1.414 1.414 0 012.828 0v7.069a1.414 1.414 0 01-1.414 1.414z" fill="#def3f9"/></g><g data-name="Group 85"><path data-name="Path 76" d="M10.973 84.341a1.413 1.413 0 01-1.414-1.414v-7.069a1.414 1.414 0 012.828 0v7.069a1.414 1.414 0 01-1.414 1.414z" fill="#def3f9"/></g><g data-name="Group 86"><path data-name="Path 77" d="M18.042 84.341a1.413 1.413 0 01-1.414-1.414v-7.069a1.414 1.414 0 012.828 0v7.069a1.414 1.414 0 01-1.414 1.414z" fill="#def3f9"/></g><g data-name="Group 87"><path data-name="Path 78" d="M25.111 84.341a1.413 1.413 0 01-1.414-1.414v-7.069a1.414 1.414 0 012.828 0v7.069a1.414 1.414 0 01-1.414 1.414z" fill="#def3f9"/></g><g data-name="Group 88"><path data-name="Path 79" d="M32.18 84.341a1.413 1.413 0 01-1.414-1.414v-7.069a1.414 1.414 0 012.828 0v7.069a1.414 1.414 0 01-1.414 1.414z" fill="#def3f9"/></g><g data-name="Group 89"><path data-name="Path 80" d="M39.249 84.341a1.413 1.413 0 01-1.414-1.414v-7.069a1.414 1.414 0 012.828 0v7.069a1.414 1.414 0 01-1.414 1.414z" fill="#def3f9"/></g><g data-name="Group 90"><path data-name="Path 81" d="M46.318 84.341a1.414 1.414 0 01-1.414-1.414v-7.069a1.414 1.414 0 012.828 0v7.069a1.414 1.414 0 01-1.414 1.414z" fill="#def3f9"/></g><g data-name="Group 91"><path data-name="Path 82" d="M53.387 84.341a1.413 1.413 0 01-1.414-1.414v-7.069a1.414 1.414 0 012.828 0v7.069a1.414 1.414 0 01-1.414 1.414z" fill="#def3f9"/></g><g data-name="Group 92"><path data-name="Path 83" d="M60.456 84.341a1.413 1.413 0 01-1.414-1.414v-7.069a1.414 1.414 0 012.828 0v7.069a1.414 1.414 0 01-1.414 1.414z" fill="#def3f9"/></g><g data-name="Group 93"><path data-name="Path 84" d="M67.525 84.341a1.413 1.413 0 01-1.414-1.414v-7.069a1.414 1.414 0 012.828 0v7.069a1.414 1.414 0 01-1.414 1.414z" fill="#def3f9"/></g><g data-name="Group 94"><path data-name="Path 85" d="M74.594 84.341a1.413 1.413 0 01-1.414-1.414v-7.069a1.414 1.414 0 012.828 0v7.069a1.414 1.414 0 01-1.414 1.414z" fill="#def3f9"/></g><g data-name="Group 95"><path data-name="Path 86" d="M81.663 84.341a1.413 1.413 0 01-1.414-1.414v-7.069a1.414 1.414 0 012.828 0v7.069a1.414 1.414 0 01-1.414 1.414z" fill="#def3f9"/></g><g data-name="Group 96"><path data-name="Path 87" d="M88.732 84.341a1.414 1.414 0 01-1.414-1.414v-7.069a1.414 1.414 0 012.828 0v7.069a1.414 1.414 0 01-1.414 1.414z" fill="#def3f9"/></g><g data-name="Group 97"><path data-name="Path 88" d="M95.801 84.341a1.413 1.413 0 01-1.414-1.414v-7.069a1.414 1.414 0 012.828 0v7.069a1.414 1.414 0 01-1.414 1.414z" fill="#def3f9"/></g><g data-name="Group 98"><path data-name="Path 89" d="M102.87 84.341a1.414 1.414 0 01-1.414-1.414v-7.069a1.414 1.414 0 012.828 0v7.069a1.414 1.414 0 01-1.414 1.414z" fill="#def3f9"/></g><g data-name="Group 99"><path data-name="Path 90" d="M109.939 84.341a1.413 1.413 0 01-1.414-1.414v-7.069a1.414 1.414 0 012.827 0v7.069a1.414 1.414 0 01-1.413 1.414z" fill="#def3f9"/></g></g><g data-name="Group 117"><g data-name="Group 101"><path data-name="Path 91" d="M.369 98.479a1.413 1.413 0 01-1.414-1.414v-7.069a1.414 1.414 0 112.828 0v7.069a1.414 1.414 0 01-1.414 1.414z" fill="#def3f9"/></g><g data-name="Group 102"><path data-name="Path 92" d="M7.438 98.479a1.413 1.413 0 01-1.414-1.414v-7.069a1.414 1.414 0 112.828 0v7.069a1.414 1.414 0 01-1.414 1.414z" fill="#def3f9"/></g><g data-name="Group 103"><path data-name="Path 93" d="M14.507 98.479a1.413 1.413 0 01-1.414-1.414v-7.069a1.414 1.414 0 112.828 0v7.069a1.414 1.414 0 01-1.414 1.414z" fill="#def3f9"/></g><g data-name="Group 104"><path data-name="Path 94" d="M21.576 98.479a1.413 1.413 0 01-1.414-1.414v-7.069a1.414 1.414 0 112.828 0v7.069a1.414 1.414 0 01-1.414 1.414z" fill="#def3f9"/></g><g data-name="Group 105"><path data-name="Path 95" d="M28.645 98.479a1.413 1.413 0 01-1.414-1.414v-7.069a1.414 1.414 0 112.828 0v7.069a1.414 1.414 0 01-1.414 1.414z" fill="#def3f9"/></g><g data-name="Group 106"><path data-name="Path 96" d="M35.714 98.479a1.413 1.413 0 01-1.414-1.414v-7.069a1.414 1.414 0 112.828 0v7.069a1.414 1.414 0 01-1.414 1.414z" fill="#def3f9"/></g><g data-name="Group 107"><path data-name="Path 97" d="M42.783 98.479a1.413 1.413 0 01-1.414-1.414v-7.069a1.414 1.414 0 112.827 0v7.069a1.414 1.414 0 01-1.413 1.414z" fill="#def3f9"/></g><g data-name="Group 108"><path data-name="Path 98" d="M49.852 98.479a1.413 1.413 0 01-1.414-1.414v-7.069a1.414 1.414 0 112.828 0v7.069a1.414 1.414 0 01-1.414 1.414z" fill="#def3f9"/></g><g data-name="Group 109"><path data-name="Path 99" d="M56.921 98.479a1.413 1.413 0 01-1.414-1.414v-7.069a1.414 1.414 0 112.827 0v7.069a1.414 1.414 0 01-1.413 1.414z" fill="#def3f9"/></g><g data-name="Group 110"><path data-name="Path 100" d="M63.99 98.479a1.413 1.413 0 01-1.414-1.414v-7.069a1.414 1.414 0 112.827 0v7.069a1.414 1.414 0 01-1.413 1.414z" fill="#def3f9"/></g><g data-name="Group 111"><path data-name="Path 101" d="M71.059 98.479a1.413 1.413 0 01-1.414-1.414v-7.069a1.414 1.414 0 012.828 0v7.069a1.414 1.414 0 01-1.414 1.414z" fill="#def3f9"/></g><g data-name="Group 112"><path data-name="Path 102" d="M78.128 98.479a1.413 1.413 0 01-1.414-1.414v-7.069a1.414 1.414 0 112.828 0v7.069a1.414 1.414 0 01-1.414 1.414z" fill="#def3f9"/></g><g data-name="Group 113"><path data-name="Path 103" d="M85.197 98.479a1.413 1.413 0 01-1.414-1.414v-7.069a1.414 1.414 0 112.828 0v7.069a1.414 1.414 0 01-1.414 1.414z" fill="#def3f9"/></g><g data-name="Group 114"><path data-name="Path 104" d="M92.266 98.479a1.413 1.413 0 01-1.414-1.414v-7.069a1.414 1.414 0 112.828 0v7.069a1.414 1.414 0 01-1.414 1.414z" fill="#def3f9"/></g><g data-name="Group 115"><path data-name="Path 105" d="M99.335 98.479a1.413 1.413 0 01-1.414-1.414v-7.069a1.414 1.414 0 112.828 0v7.069a1.414 1.414 0 01-1.414 1.414z" fill="#def3f9"/></g><g data-name="Group 116"><path data-name="Path 106" d="M106.404 98.479a1.413 1.413 0 01-1.414-1.414v-7.069a1.414 1.414 0 012.828 0v7.069a1.414 1.414 0 01-1.414 1.414z" fill="#def3f9"/></g></g><g data-name="Group 134"><g data-name="Group 118"><path data-name="Path 107" d="M3.904 112.616a1.413 1.413 0 01-1.414-1.414v-7.069a1.414 1.414 0 012.828 0v7.069a1.414 1.414 0 01-1.414 1.414z" fill="#def3f9"/></g><g data-name="Group 119"><path data-name="Path 108" d="M10.973 112.616a1.413 1.413 0 01-1.414-1.414v-7.069a1.414 1.414 0 012.828 0v7.069a1.414 1.414 0 01-1.414 1.414z" fill="#def3f9"/></g><g data-name="Group 120"><path data-name="Path 109" d="M18.042 112.616a1.413 1.413 0 01-1.414-1.414v-7.069a1.414 1.414 0 012.828 0v7.069a1.414 1.414 0 01-1.414 1.414z" fill="#def3f9"/></g><g data-name="Group 121"><path data-name="Path 110" d="M25.111 112.616a1.413 1.413 0 01-1.414-1.414v-7.069a1.414 1.414 0 012.828 0v7.069a1.414 1.414 0 01-1.414 1.414z" fill="#def3f9"/></g><g data-name="Group 122"><path data-name="Path 111" d="M32.18 112.616a1.413 1.413 0 01-1.414-1.414v-7.069a1.414 1.414 0 012.828 0v7.069a1.414 1.414 0 01-1.414 1.414z" fill="#def3f9"/></g><g data-name="Group 123"><path data-name="Path 112" d="M39.249 112.616a1.413 1.413 0 01-1.414-1.414v-7.069a1.414 1.414 0 012.828 0v7.069a1.414 1.414 0 01-1.414 1.414z" fill="#def3f9"/></g><g data-name="Group 124"><path data-name="Path 113" d="M46.318 112.616a1.413 1.413 0 01-1.414-1.414v-7.069a1.414 1.414 0 012.828 0v7.069a1.414 1.414 0 01-1.414 1.414z" fill="#def3f9"/></g><g data-name="Group 125"><path data-name="Path 114" d="M53.387 112.616a1.413 1.413 0 01-1.414-1.414v-7.069a1.414 1.414 0 012.828 0v7.069a1.414 1.414 0 01-1.414 1.414z" fill="#def3f9"/></g><g data-name="Group 126"><path data-name="Path 115" d="M60.456 112.616a1.413 1.413 0 01-1.414-1.414v-7.069a1.414 1.414 0 012.828 0v7.069a1.414 1.414 0 01-1.414 1.414z" fill="#def3f9"/></g><g data-name="Group 127"><path data-name="Path 116" d="M67.525 112.616a1.413 1.413 0 01-1.414-1.414v-7.069a1.414 1.414 0 012.828 0v7.069a1.414 1.414 0 01-1.414 1.414z" fill="#def3f9"/></g><g data-name="Group 128"><path data-name="Path 117" d="M74.594 112.616a1.413 1.413 0 01-1.414-1.414v-7.069a1.414 1.414 0 012.828 0v7.069a1.414 1.414 0 01-1.414 1.414z" fill="#def3f9"/></g><g data-name="Group 129"><path data-name="Path 118" d="M81.663 112.616a1.413 1.413 0 01-1.414-1.414v-7.069a1.414 1.414 0 012.828 0v7.069a1.414 1.414 0 01-1.414 1.414z" fill="#def3f9"/></g><g data-name="Group 130"><path data-name="Path 119" d="M88.732 112.616a1.413 1.413 0 01-1.414-1.414v-7.069a1.414 1.414 0 012.828 0v7.069a1.414 1.414 0 01-1.414 1.414z" fill="#def3f9"/></g><g data-name="Group 131"><path data-name="Path 120" d="M95.801 112.616a1.413 1.413 0 01-1.414-1.414v-7.069a1.414 1.414 0 012.828 0v7.069a1.414 1.414 0 01-1.414 1.414z" fill="#def3f9"/></g><g data-name="Group 132"><path data-name="Path 121" d="M102.87 112.616a1.413 1.413 0 01-1.414-1.414v-7.069a1.414 1.414 0 012.828 0v7.069a1.414 1.414 0 01-1.414 1.414z" fill="#def3f9"/></g><g data-name="Group 133"><path data-name="Path 122" d="M109.939 112.616a1.413 1.413 0 01-1.414-1.414v-7.069a1.414 1.414 0 012.827 0v7.069a1.414 1.414 0 01-1.413 1.414z" fill="#def3f9"/></g></g><g data-name="Group 151"><g data-name="Group 135"><path data-name="Path 123" d="M.369 126.755a1.413 1.413 0 01-1.414-1.414v-7.069a1.414 1.414 0 112.828 0v7.069a1.414 1.414 0 01-1.414 1.414z" fill="#def3f9"/></g><g data-name="Group 136"><path data-name="Path 124" d="M7.438 126.755a1.413 1.413 0 01-1.414-1.414v-7.069a1.414 1.414 0 112.828 0v7.069a1.414 1.414 0 01-1.414 1.414z" fill="#def3f9"/></g><g data-name="Group 137"><path data-name="Path 125" d="M14.507 126.755a1.413 1.413 0 01-1.414-1.414v-7.069a1.414 1.414 0 112.828 0v7.069a1.414 1.414 0 01-1.414 1.414z" fill="#def3f9"/></g><g data-name="Group 138"><path data-name="Path 126" d="M21.576 126.755a1.414 1.414 0 01-1.414-1.414v-7.069a1.414 1.414 0 112.828 0v7.069a1.414 1.414 0 01-1.414 1.414z" fill="#def3f9"/></g><g data-name="Group 139"><path data-name="Path 127" d="M28.645 126.755a1.413 1.413 0 01-1.414-1.414v-7.069a1.414 1.414 0 112.828 0v7.069a1.414 1.414 0 01-1.414 1.414z" fill="#def3f9"/></g><g data-name="Group 140"><path data-name="Path 128" d="M35.714 126.755a1.413 1.413 0 01-1.414-1.414v-7.069a1.414 1.414 0 112.828 0v7.069a1.414 1.414 0 01-1.414 1.414z" fill="#def3f9"/></g><g data-name="Group 141"><path data-name="Path 129" d="M42.783 126.755a1.413 1.413 0 01-1.414-1.414v-7.069a1.414 1.414 0 112.827 0v7.069a1.414 1.414 0 01-1.413 1.414z" fill="#def3f9"/></g><g data-name="Group 142"><path data-name="Path 130" d="M49.852 126.755a1.413 1.413 0 01-1.414-1.414v-7.069a1.414 1.414 0 112.828 0v7.069a1.414 1.414 0 01-1.414 1.414z" fill="#def3f9"/></g><g data-name="Group 143"><path data-name="Path 131" d="M56.921 126.755a1.413 1.413 0 01-1.414-1.414v-7.069a1.414 1.414 0 112.827 0v7.069a1.414 1.414 0 01-1.413 1.414z" fill="#def3f9"/></g><g data-name="Group 144"><path data-name="Path 132" d="M63.99 126.755a1.413 1.413 0 01-1.414-1.414v-7.069a1.414 1.414 0 112.827 0v7.069a1.414 1.414 0 01-1.413 1.414z" fill="#def3f9"/></g><g data-name="Group 145"><path data-name="Path 133" d="M71.059 126.755a1.413 1.413 0 01-1.414-1.414v-7.069a1.414 1.414 0 012.828 0v7.069a1.414 1.414 0 01-1.414 1.414z" fill="#def3f9"/></g><g data-name="Group 146"><path data-name="Path 134" d="M78.128 126.755a1.413 1.413 0 01-1.414-1.414v-7.069a1.414 1.414 0 112.828 0v7.069a1.414 1.414 0 01-1.414 1.414z" fill="#def3f9"/></g><g data-name="Group 147"><path data-name="Path 135" d="M85.197 126.755a1.413 1.413 0 01-1.414-1.414v-7.069a1.414 1.414 0 112.828 0v7.069a1.414 1.414 0 01-1.414 1.414z" fill="#def3f9"/></g><g data-name="Group 148"><path data-name="Path 136" d="M92.266 126.755a1.413 1.413 0 01-1.414-1.414v-7.069a1.414 1.414 0 112.828 0v7.069a1.414 1.414 0 01-1.414 1.414z" fill="#def3f9"/></g><g data-name="Group 149"><path data-name="Path 137" d="M99.335 126.755a1.413 1.413 0 01-1.414-1.414v-7.069a1.414 1.414 0 112.828 0v7.069a1.414 1.414 0 01-1.414 1.414z" fill="#def3f9"/></g><g data-name="Group 150"><path data-name="Path 138" d="M106.404 126.755a1.413 1.413 0 01-1.414-1.414v-7.069a1.414 1.414 0 012.828 0v7.069a1.414 1.414 0 01-1.414 1.414z" fill="#def3f9"/></g></g></g></g></g><g data-name="Group 155"><path data-name="Path 140" d="M917.194 472.922l-9.585-6.6c-3.024-2.083-7.007-4.017-9.6-6.608-2.432-2.433.141-4.507 2.016-7.007a47.974 47.974 0 015.474-6.217c7.916-7.443 17.979-9.362 27.765-4.29 5.729 2.969 10.384 7.873 14.021 13.131 2.426 3.507-.514 5.744-3.134 8.511a43.193 43.193 0 01-7.875 6.556c-2.487 1.611-5.37 3.008-8.3 2.577s-5.6-3.443-4.654-6.251z" fill="#def3f9"/></g><g data-name="Group 157"><g data-name="Group 156"><path data-name="Path 141" d="M976.354 562.249a890.829 890.829 0 017.008 107.93l2.063-.348c-3.58-8.018-7.7-15.828-12.019-23.468-8.116-14.364-17.263-28.745-29.134-40.327-9.222-9-21.092-16.48-34.295-11.889-13.973 4.86-24.2 18.278-32.011 30.167a184.036 184.036 0 00-15.8 29.185l2.02.053c.716-27.167 1.289-54.39 2.984-81.517a261.444 261.444 0 013.5-26.326c.172-1.046-1.922-.8-2.078.147-1.332 8.059-2.805 16.111-3.37 24.269-.5 7.166-.79 14.347-1.087 21.524-.69 16.749-1.216 33.505-1.7 50.261q-.171 5.894-.329 11.789c-.028 1.048 1.716.774 2.021.053a183.646 183.646 0 0111.5-22.3c7.46-12.525 16.767-26.262 29.778-33.569 5.8-3.259 12.4-4.73 18.895-2.791 6.465 1.928 12.063 6.2 16.932 10.741 11.547 10.766 20.439 24.439 28.334 38a280.1 280.1 0 0113.816 26.546c.346.775 2.065.582 2.063-.348a894.237 894.237 0 00-7.037-108.333c-.12-.962-2.174-.454-2.049.549z" fill="#6a79a8"/></g></g><g data-name="Group 159"><g data-name="Group 158"><path data-name="Path 142" d="M944.32 453.047c10.354 13.3 15.589 29.745 20.107 45.754 5.478 19.417 8.763 39.453 11.411 59.429.114.866 2.17.372 2.048-.549-2.677-20.205-6.048-40.425-11.589-60.062-4.487-15.9-9.814-32.242-20.094-45.445-.528-.678-2.49.095-1.883.873z" fill="#6a79a8"/></g></g><g data-name="Group 161"><g data-name="Group 160"><path data-name="Path 143" d="M871.748 539.331a390.46 390.46 0 0111.005-46.764c4.528-14.629 10.1-29.98 19.932-41.966.783-.955-1.181-1.006-1.664-.416-9.559 11.653-15.14 26.324-19.672 40.532a381.289 381.289 0 00-11.657 48.841c-.154.86 1.919.537 2.056-.227z" fill="#6a79a8"/></g></g><g data-name="Group 162"><path data-name="Path 144" d="M946.04 416.082c0-22.644-9.969-41-22.267-41s-22.267 18.357-22.267 41v4.058c0 12.555 1.068 21.3 2.936 27.392 3.839 12.515 18.867 17.739 18.867 17.739s15.387-5.126 19.327-16.313c2.157-6.124 3.4-15.247 3.4-28.818z" fill="#fff"/></g><g data-name="Group 163"><path data-name="Path 145" d="M945.413 394.363c4.513-5.98 3.623-14.991-1.043-20.852s-12.377-8.748-19.868-8.83-14.807 2.352-21.57 5.575c-4.3 2.049-8.728 4.73-10.587 9.118-1.964 4.634-.429 10.266 2.974 13.975s8.369 5.681 13.353 6.385 10.049.255 15.061-.206c3.219-.3 6.52-.62 9.423-2.042s5.369-4.2 5.466-7.433z" fill="#bbdff5"/></g><g data-name="Group 165"><g data-name="Group 164"><path data-name="Path 146" d="M947.077 416.003c-.107-13.352-3.236-33.427-16.8-40.151-11.849-5.874-21.54 6.039-25.458 15.9a67.63 67.63 0 00-4.354 24.828c-.023 8.369.043 16.82 1.506 25.086 1.407 7.943 4.788 14.349 11.4 19.207 2.311 1.7 6.29 4.736 9.3 5.037 3.052.3 6.954-2.555 9.413-4.076a27.317 27.317 0 0013.114-18.525c1.892-8.958 1.879-18.2 1.879-27.309 0-1.071-2.075-.766-2.075.156a181.3 181.3 0 01-.781 20.3c-.667 5.931-1.594 12.52-5.321 17.391a31.1 31.1 0 01-9.892 8.036c-1.594.874-3.561 2.217-5.4 2.23-2.063.014-4.2-1.539-5.944-2.6-6.856-4.176-11.426-10.049-13.159-17.916-1.6-7.246-1.912-14.757-1.965-22.152-.048-6.921.09-13.8 1.566-20.591 2.13-9.8 9.544-28.775 23-24.442 6.213 2 10.3 8.284 12.842 13.922 3.637 8.061 4.977 17.047 5.047 25.828.013 1.068 2.09.762 2.082-.159z" fill="#6a79a8"/></g></g><g data-name="Group 166"><path data-name="Path 147" d="M944.298 462.455a33.372 33.372 0 01-10.306 9.133 47.293 47.293 0 01-5.189 2.644l-4.522-7.427c-.286-.47-1.347-1-1.85-.566-.414.356-3.745 5.1-4.86 6.234-.665.676-.99 1.341-1.978.947a7.621 7.621 0 01-1.672-1.34q-6.735-5.341-13.483-10.665c-1.45-1.147-4.894.959-3.055 2.415l16.982 13.432a2.514 2.514 0 003.2-.568l4.506-5.714 2.331 3.829c1.177 1.933 1.665 3.17 4.123 2.534 7.5-1.943 14.417-7.521 19.122-13.609 1.578-2.043-2.177-2.794-3.349-1.279z" fill="#f2f2f2"/></g><g data-name="Group 168"><g data-name="Group 167"><path data-name="Path 148" d="M922.453 464.976l-6.722 8.777 1.646-.291-16.495-13.433c-.692-.563-2.489.432-1.582 1.171l16.495 13.429a1.358 1.358 0 001.646-.291l6.723-8.777c.787-1.028-1.149-1.321-1.711-.588z" fill="#6a79a8"/></g></g><g data-name="Group 170"><g data-name="Group 169"><path data-name="Path 149" d="M922.021 466.134l4.928 8.334c.144.242.6.217.821.206 2.408-.121 5.444-2.138 7.536-3.278a35.913 35.913 0 0011.46-10.262c.586-.78-1.483-.686-1.923-.1a33.834 33.834 0 01-9.363 8.807 41.184 41.184 0 01-3.916 2.034 32.1 32.1 0 00-2.958 1.549c.4.088-.361-.807-.6-1.219l-1.623-2.744q-1.231-2.084-2.464-4.167c-.378-.639-2.364.037-1.894.832z" fill="#6a79a8"/></g></g><g data-name="Group 172"><g data-name="Group 171"><path data-name="Path 150" d="M927.903 436.458c-2.172-7.3-12.427-6.885-15.3-.378-.1.235 1.793.112 2.013-.387 1.289-2.914 4.75-4.807 7.776-3.141a7.288 7.288 0 013.467 4.454c.119.4 2.161-.171 2.049-.549z" fill="#6a79a8"/></g></g><g data-name="Group 174"><g data-name="Group 173"><path data-name="Path 151" d="M972.6 558.209c-16.74.124-33.721.618-50.412-.882a222.522 222.522 0 01-30.021-5.277c-4.853-1.12-9.682-2.374-14.55-3.423-1.293-.279-5.9-1.4-4.823 1.554.76 2.071 5.751 3.507 7.6 4.162 3.862 1.366 8.155 1.994 12.191 2.871a199.044 199.044 0 0024.432 4c17.288 1.553 34.87 1.081 52.209.952 1.528-.011 4.627-.591 5.447-2.093.852-1.564-.724-1.875-2.073-1.864z" fill="#a7d2e8"/></g></g><g data-name="Group 176"><g data-name="Group 175"><path data-name="Path 152" d="M950.847 570.75a25.912 25.912 0 0010.319 12.6 3.964 3.964 0 004.414-.341c.987-.779 1.632-2.449.3-3.291a22.039 22.039 0 01-8.888-10.618c-1.12-2.847-7.236-1.126-6.145 1.647z" fill="#a7d2e8"/></g></g><g data-name="Group 178"><g data-name="Group 177"><path data-name="Path 153" d="M972.28 557.953c-16.2-.218-32.5-.314-48.645-1.732-15.686-1.379-31.289-6-46.525-9.8-.991-.247-4.592 1.341-3.349 1.651 15.252 3.8 30.852 8.389 46.547 9.846 16.363 1.518 32.916 1.573 49.338 1.794.932.013 4.664-1.733 2.633-1.761z" fill="#6a79a8"/></g></g><g data-name="Group 180"><g data-name="Group 179"><path data-name="Path 154" d="M955.244 568.414a24.141 24.141 0 009.665 11.693c.508.32 2.253-.508 1.926-.715a23.786 23.786 0 01-9.542-11.527c-.206-.524-2.22.113-2.049.549z" fill="#6a79a8"/></g></g><g data-name="Group 182"><g data-name="Group 181"><path data-name="Path 155" d="M888.385 469.249c-12.48 6.518-15.754 24.172-18.042 36.712-3.453 18.932-2.022 38.563 3.11 57.078.238.856 2.286.307 2.049-.549-4.867-17.557-6.619-36.48-3.49-54.494a126.826 126.826 0 014.731-19.723c2.346-6.8 5.828-14.465 12.512-17.955 1.243-.649.117-1.583-.87-1.068z" fill="#6a79a8"/></g></g><g data-name="Group 195"><g data-name="Group 183"><path data-name="Path 156" d="M880.9 559.783a16.144 16.144 0 01-7.127 9.755c-1.086.686-1.543 2.107-.394 2.939 1.245.9 3.242.291 4.39-.433a21.3 21.3 0 009.332-12.821c.705-2.738-5.553-1.952-6.2.561z" fill="#a7d2e8"/></g><g data-name="Group 184"><path data-name="Path 157" d="M875.955 576.006l.168 4.379a8.208 8.208 0 00.083 2.195c.2.52.887.481 1.432.313a1.612 1.612 0 001.034-.906 2.731 2.731 0 00-.073-1.67 18.73 18.73 0 01-.6-4.86c-.021-.666-2.074-.254-2.044.549z" fill="#a7d2e8"/></g><g data-name="Group 185"><path data-name="Path 158" d="M880.458 572.711l2.121 1.767a.944.944 0 001.547-.638c.08-.808-1.2-1.465-1.767-1.935a1.381 1.381 0 00-1.357-.025c-.209.089-.908.528-.544.831z" fill="#a7d2e8"/></g><g data-name="Group 186"><path data-name="Path 159" d="M872.1 577.397c-.2.469-.909 1.5-.872 1.994.056.766 1.147.928 1.6.47a9.756 9.756 0 001.303-2.809c.158-.363-.694-.267-.832-.243-.351.06-1.034.212-1.199.588z" fill="#a7d2e8"/></g><g data-name="Group 188"><g data-name="Group 187"><path data-name="Path 160" d="M881.679 558.783a17.886 17.886 0 01-7.853 10.812c-1.171.739.574 1.193 1.3.732a19.556 19.556 0 008.607-11.763c.216-.839-1.86-.555-2.059.218z" fill="#6a79a8"/></g></g><g data-name="Group 190"><g data-name="Group 189"><path data-name="Path 161" d="M874.879 575.403q.134 3.536.271 7.073c.025.666 2.079.254 2.048-.549l-.271-7.072c-.025-.667-2.079-.255-2.048.549z" fill="#6a79a8"/></g></g><g data-name="Group 192"><g data-name="Group 191"><path data-name="Path 162" d="M878.691 572.711l2.121 1.767a1.381 1.381 0 001.357.026c.209-.089.908-.528.544-.831l-2.121-1.767a1.381 1.381 0 00-1.357-.025c-.209.089-.908.528-.544.831z" fill="#6a79a8"/></g></g><g data-name="Group 194"><g data-name="Group 193"><path data-name="Path 163" d="M871.025 576.795l-1.077 2.467c-.158.363.694.266.832.243.346-.057 1.029-.209 1.194-.585l1.076-2.467c.158-.363-.694-.266-.832-.243-.346.057-1.029.208-1.193.585z" fill="#6a79a8"/></g></g></g><g data-name="Group 202"><g data-name="Group 197"><g data-name="Group 196"><path data-name="Path 164" d="M959.644 475.25a235.629 235.629 0 0125.029 40.7 232.849 232.849 0 019.584 22.958c1.323 3.716 2.65 7.471 3.692 11.278 1.092 3.992.691 7.662 0 11.691l1.991-.616c-.983-.5-1.994-.866-2.977-1.362-.518-.262-2.126.586-1.935.682.983.5 1.993.866 2.977 1.363.408.205 1.9-.082 1.991-.616.643-3.766 1.122-7.306.165-11.061-.971-3.816-2.331-7.577-3.641-11.287a233.3 233.3 0 00-34.833-64.28c-.36-.472-2.175.383-2.048.549z" fill="#6a79a8"/></g></g><g data-name="Group 199"><g data-name="Group 198"><path data-name="Path 165" d="M1001.803 565.926l-1.722-4.014c-.368-.859-2.4-.264-2.049.549l1.722 4.014c.368.859 2.4.264 2.049-.549z" fill="#6a79a8"/></g></g><g data-name="Group 201"><g data-name="Group 200"><path data-name="Path 166" d="M1003.84 564.521l-2.356-1.649c-.35-.245-.972-.063-1.33.074-.134.052-.922.423-.591.655l2.356 1.649c.35.245.972.063 1.33-.075.134-.051.922-.423.591-.655z" fill="#6a79a8"/></g></g></g><g data-name="Group 208"><g data-name="Group 204"><g data-name="Group 203"><path data-name="Path 167" d="M932.093 488.328c.379.744 1.708.667 2.387.736 1.084.109 2.173.179 3.262.193 2.085.028 4.235-.716 6.281-.573a4.534 4.534 0 002.211-.63c.556-.349.351-.96-.318-.943a13.315 13.315 0 00-1.657.175 24.447 24.447 0 01-3.207.412 33.9 33.9 0 01-6.185-.549 4.6 4.6 0 00-2.326.32c-.373.141-.606.171-.537.585a.915.915 0 00.089.274z" fill="#f2f2f2"/></g></g><g data-name="Group 206"><g data-name="Group 205"><path data-name="Path 168" d="M931.662 487.62a48.781 48.781 0 006.7.6c2.291.028 4.615-.718 6.878-.573.8.051 2.171-1.095.791-1.183-2.057-.132-4.139.542-6.195.575a41.8 41.8 0 01-6.927-.549c-.665-.1-2.408.954-1.25 1.13z" fill="#6a79a8"/></g></g><g data-name="Group 207"><circle data-name="Ellipse 1" cx="1.767" cy="1.767" fill="#6a79a8" r="1.767" transform="translate(937.196 491.114)"/></g></g></g><g data-name="Group 216"><g data-name="Group 210"><path data-name="Path 169" d="M1037.378 384.14a1.13 1.13 0 00.7-.222c.356-.409-.428-1.227-.634-1.639l-.91-1.827-2.011-4.038-2.42-4.863c-.4-.806-.915-2.924-2.056-2.194-.751.481-1.428 2.03-2.008 2.746a31.714 31.714 0 01-5.014 4.936c-.66.518-1.354.717-.9 1.588a4.59 4.59 0 001.786 1.776 25.058 25.058 0 0011.3 3.677 16.806 16.806 0 002.167.06z" fill="#ffbbab"/></g><g data-name="Group 211"><ellipse data-name="Ellipse 2" cx="92.227" cy="54.606" rx="92.227" ry="54.606" fill="#ffbbab" transform="translate(940.896 263.76)"/></g><g data-name="Group 213"><g data-name="Group 212"><path data-name="Path 170" d="M1011.512 594.999c-4.951-4.22-8.107-10.444-10.121-16.536s-3.345-13.424-1.086-19.639c2.741-7.538 10.575-12.287 15.352-18.454a40.938 40.938 0 008.171-21c.8-8.095-1.062-16.37-3.008-24.193-2.207-8.866-7-15.281-12.511-22.376-10.3-13.27-17.721-33.282-6.267-48.18 5.389-7.01 12.034-13.015 17.5-20 5.667-7.247 10.334-15.2 11.8-24.4.031-.194-1.951-.061-2.049.549-2.825 17.688-16.952 29.539-27.881 42.51a28.613 28.613 0 00-7.126 20.231 47.527 47.527 0 008.41 25c4.875 7.185 11.362 13.31 14.4 21.607a81.819 81.819 0 013.152 12.532 70.786 70.786 0 011.737 12.273 41.428 41.428 0 01-7.039 24.014c-4.632 6.773-12.466 11.4-16.085 18.874-3 6.188-1.755 13.993.192 20.289 2 6.471 5.291 13.115 10.524 17.575.406.346 2.213-.449 1.933-.687z" fill="#6a79a8"/></g></g><g data-name="Group 214"><path data-name="Path 171" d="M1037.146 383.296c.2.117.38.166.494.1.327-.2.1-.545.012-.8a46.986 46.986 0 00-2.406-4.832l-3.009-6.043c-.33-.663-.753-2.4-1.691-1.8-.617.4-1.174 1.67-1.652 2.259a26.074 26.074 0 01-4.123 4.06q-.8.629-1.648 1.195c-.594.4-.192 1.011.3 1.12a13.634 13.634 0 002.2-.088 17.444 17.444 0 019.789 3.37 16.765 16.765 0 001.734 1.459z" fill="#ff9c81"/></g><g data-name="Group 215"><ellipse data-name="Ellipse 3" cx="88.75" cy="50.98" rx="88.75" ry="50.98" fill="#ff9c81" transform="translate(946.494 269.146)"/></g></g></g><text data-name="No Result" transform="translate(974 329)" fill="#fff" font-size="28" font-family="Lato-Black, Lato" font-weight="800"><tspan x="0" y="0">No Result</tspan></text></g></svg>