<svg xmlns="http://www.w3.org/2000/svg" xmlns:xlink="http://www.w3.org/1999/xlink" viewBox="0 0 50 50">
  <defs>
    <style>
      .cls-1 {
        fill: url(#linear-gradient);
      }

      .cls-2 {
        fill: #fff;
      }
    </style>
    <linearGradient id="linear-gradient" x1="0.036" y1="0.743" x2="0.958" y2="0.263" gradientUnits="objectBoundingBox">
      <stop offset="0" stop-color="#ff9a9e"/>
      <stop offset="1" stop-color="#fad0c4"/>
    </linearGradient>
  </defs>
  <g id="Group_300" data-name="Group 300" transform="translate(-40 -83)">
    <rect id="Rectangle_19" data-name="Rectangle 19" class="cls-1" width="50" height="50" rx="25" transform="translate(40 83)"/>
    <path id="Path_193" data-name="Path 193" class="cls-2" d="M16.993,4.77h-9.6c-6.336,0-9.968,17.044-5.227,17.044,4,0,4.537-4.984,10.013-4.984,4.429,0,7.029,4.922,9.984,4.922C26.9,21.752,23.33,4.77,16.993,4.77ZM7.434,13.291a3.173,3.173,0,1,1,3.173-3.174A3.175,3.175,0,0,1,7.434,13.291Zm7.877-2.671a.982.982,0,1,1,1.233-.645A.98.98,0,0,1,15.312,10.62Zm2.975,2.355a1.5,1.5,0,1,1-.981-1.879A1.5,1.5,0,0,1,18.287,12.974Zm-.565-3.452a1.385,1.385,0,1,1,1.734-.909A1.39,1.39,0,0,1,17.722,9.523Zm2.72,2.018a.984.984,0,1,1-.647-1.233A.986.986,0,0,1,20.442,11.541Zm-11.4-1.376A1.635,1.635,0,1,1,7.4,8.531,1.635,1.635,0,0,1,9.038,10.165Z" transform="translate(52.742 94.349)"/>
  </g>
</svg>
