<svg xmlns="http://www.w3.org/2000/svg" width="1170.333" height="570" viewBox="0 0 1170.333 570">
  <g id="Group_230" data-name="Group 230" transform="translate(-388 -899)">
    <g id="Group_219" data-name="Group 219" transform="translate(0 700)">
      <rect id="Rectangle_1" data-name="Rectangle 1" width="1170" height="570" rx="3" transform="translate(388 199)" fill="none"/>
    </g>
    <g id="Group_229" data-name="Group 229" transform="translate(825 749)">
      <g id="_ÎÓÈ_1_1_" data-name="—ÎÓÈ_1_1_" transform="translate(100 150)">
        <path id="Path_172" data-name="Path 172" d="M263.332,710.337c-13.413-2.9-174.571-29.036-162.708-221.784s26.753-250.715,89.409-271.922S405,95.072,524.51,190.49s248.481,181,197.3,333.35-59.557,203.175-193.084,195.4S327.113,724.133,263.332,710.337Z" transform="translate(-100 -150)" fill="#f9f9f9"/>
      </g>
      <g id="_ÎÓÈ_2" data-name="—ÎÓÈ_2" transform="translate(224.126 240.704)">
        <g id="Group_228" data-name="Group 228" transform="translate(0 0)">
          <g id="Group_220" data-name="Group 220" transform="translate(8.099 26.792)">
            <path id="Path_173" data-name="Path 173" d="M664.931,739.059a14.594,14.594,0,0,0,1.887-20.554L556.443,585.818a145.226,145.226,0,0,0,43.5-91.071c7.353-80.1-51.835-151.256-131.939-158.609S316.746,387.972,309.393,468.076s51.835,151.257,131.939,158.61a145.058,145.058,0,0,0,85.162-18.364l6.9-4.564L644.377,737.172A14.594,14.594,0,0,0,664.931,739.059ZM568.556,491.866A114.368,114.368,0,1,1,465.121,367.522,114.5,114.5,0,0,1,568.556,491.866Z" transform="translate(-308.775 -335.519)" fill="#efefef"/>
          </g>
          <g id="Group_221" data-name="Group 221" transform="translate(6.572 57.656)">
            <path id="Path_174" data-name="Path 174" d="M325.214,456.2a242.079,242.079,0,0,0-14.735,38.405,119.754,119.754,0,0,0-3.994,37.279,145.7,145.7,0,0,0,20.006,67.726,147.6,147.6,0,0,0,115.247,71.878c29.966,2.284,62.761-4.394,88.059-21.124,1.282-.848-1.766-.545-2.359-.153-23.466,15.518-53.646,21.81-81.464,20.12a145,145,0,0,1-67.383-21.375c-38.637-23.94-64.558-65.637-68.6-110.945-1.222-13.719-.691-27.626,2.727-41,3.642-14.254,9.234-28.042,15.513-41.323.253-.535-2.638-.3-3.023.516Z" transform="translate(-306.365 -410.339)" fill="#6a79a8"/>
            <path id="Path_175" data-name="Path 175" d="M665.968,764.985l43.1,51.811,59.45,71.468c1.764,2.12,3.483,4.29,5.3,6.368,7.537,8.63,21.741,6.456,27.211-3.332.26-.465-2.577-.284-3.023.515-5.121,9.164-15.737,8.387-21.911,1.03-1.972-2.349-3.923-4.716-5.884-7.074l-24.589-29.56L683.632,781.7l-14.788-17.778c-.5-.6-3.394.443-2.875,1.066Z" transform="translate(-438.197 -523.397)" fill="#6a79a8"/>
            <path id="Path_176" data-name="Path 176" d="M445.3,401.81a112.438,112.438,0,0,1,105.44-5.611A114.265,114.265,0,0,1,616.1,510.144c-.042.48,2.974.141,3.059-.82a114.834,114.834,0,0,0-115.3-125.071,118.977,118.977,0,0,0-60.924,17.4c-1.3.788,1.757.518,2.359.153Z" transform="translate(-356.325 -384.251)" fill="#6a79a8"/>
          </g>
          <g id="Group_223" data-name="Group 223" transform="translate(14.32 14.818)">
            <path id="Path_177" data-name="Path 177" d="M677.169,721.781a14.6,14.6,0,0,0,1.887-20.555L568.68,568.54a145.225,145.225,0,0,0,43.5-91.071c7.353-80.1-51.835-151.257-131.939-158.609S328.983,370.693,321.63,450.8s51.835,151.257,131.939,158.61a145.062,145.062,0,0,0,85.162-18.364l6.9-4.564L656.614,719.894A14.6,14.6,0,0,0,677.169,721.781ZM580.793,474.587A114.368,114.368,0,1,1,477.358,350.243,114.5,114.5,0,0,1,580.793,474.587Z" transform="translate(-319.483 -317.21)" fill="#fff"/>
            <g id="Group_222" data-name="Group 222">
              <path id="Path_178" data-name="Path 178" d="M677.546,721.569c6.689-5.955,7.133-15.341,1.538-22.182-1.827-2.234-3.691-4.437-5.536-6.655l-25.013-30.07-63.945-76.87-15.388-18.5-.144,1.034a148.139,148.139,0,1,0-33.825,24.729c3.661-1.957,7.048-4.27,10.508-6.558l-2.4.032,42.665,51.289,61.115,73.468c2.257,2.713,4.494,5.443,6.772,8.14a16.7,16.7,0,0,0,23.385,2.373c1.633-1.278-.869-2.108-1.985-1.235-6.536,5.114-14.2,2.833-19.112-3.069l-6.352-7.635-25.739-30.941-62.953-75.679-14.981-18.009c-.566-.681-1.786-.374-2.4.032-50.81,33.6-119.379,29.541-166.894-8.077C332.6,542.144,312.4,483.111,325.947,428.3c13.406-54.246,58.671-97.043,113.628-107.251,56.037-10.409,114.058,14.469,145.9,61.537a144.82,144.82,0,0,1-3.48,167.306,149.545,149.545,0,0,1-15.458,17.66.78.78,0,0,0-.144,1.034l40.178,48.3,60.424,72.638,8.292,9.968c.477.573.971,1.136,1.432,1.721a14.054,14.054,0,0,1-1.693,19.58C673.638,722.029,676.626,722.388,677.546,721.569Z" transform="translate(-318.598 -316.613)" fill="#6a79a8"/>
              <path id="Path_179" data-name="Path 179" d="M596.712,492.476c-4.467,46.685-37.92,86.988-83.431,99.042-45.949,12.169-95.552-6.979-122.151-46.164S365.351,452.9,393.4,414.673c28.079-38.257,78.322-55.121,123.743-41.138,44.306,13.639,76.554,54.508,79.785,100.709a115.8,115.8,0,0,1-.22,18.231c-.129,1.467,2.974.984,3.086-.282,4.241-48.238-22.8-95.177-66.964-115.3-43.745-19.928-96.548-10.168-130.529,23.726-34.556,34.467-43.689,88.708-21.9,132.466,21.542,43.269,68.974,69.031,117.023,63.435,47.056-5.481,87.319-40.17,99.208-86.1a117.312,117.312,0,0,0,3.165-18.227C599.938,490.73,596.833,491.21,596.712,492.476Z" transform="translate(-336.945 -334.957)" fill="#6a79a8"/>
            </g>
          </g>
          <circle id="Ellipse_4" data-name="Ellipse 4" cx="114.368" cy="114.368" r="114.368" transform="translate(0 161.741) rotate(-45)" fill="#fff" opacity="0.5"/>
          <g id="Group_224" data-name="Group 224" transform="translate(46.023 46.462)">
            <path id="Path_180" data-name="Path 180" d="M495.4,367.018c-47.725-4.2-94.645,21.877-115.531,65.175-21.136,43.815-11.764,97.51,22.81,131.674,34.425,34.017,88.015,42.8,131.617,21.878,43.521-20.883,70.274-67.642,65.407-115.8-4.813-47.622-40.187-88.3-86.572-99.925a119.753,119.753,0,0,0-17.73-3c-1.286-.123-3.208,1.7-1.146,1.9,46.634,4.462,86.623,38.142,98.961,83.359,12.46,45.662-5.55,95.6-44.318,122.743-39.1,27.376-92.5,26.528-130.912-1.724-37.878-27.858-54.924-77.559-42.12-122.8,12.745-45.033,53.529-78.528,100.278-81.8a115.046,115.046,0,0,1,18.111.217C495.539,369.028,497.464,367.2,495.4,367.018Z" transform="translate(-368.656 -366.577)" fill="#6a79a8"/>
          </g>
          <g id="Group_227" data-name="Group 227" transform="translate(92.779 139.851)">
            <g id="Group_225" data-name="Group 225" transform="translate(28.122 33.608)">
              <path id="Path_181" data-name="Path 181" d="M568,585.478c-6.272-7.651-15.852-13.28-25.193-16.132-15.7-4.794-33.037-1.7-46.69,7.2a45.064,45.064,0,0,0-8.927,7.293c-1.261,1.4,1.682,1.7,2.523.762,6.041-6.715,15.085-11.376,23.673-13.686a51.334,51.334,0,0,1,44.525,9.119,42.91,42.91,0,0,1,7.276,6.737c.8.978,3.73-.178,2.815-1.295Z" transform="translate(-486.884 -567.099)" fill="#6a79a8"/>
            </g>
            <path id="Path_182" data-name="Path 182" d="M490.3,519.79a5.729,5.729,0,1,0-5.757,5.7A5.73,5.73,0,0,0,490.3,519.79Z" transform="translate(-455.812 -514.033)" fill="#6a79a8"/>
            <circle id="Ellipse_5" data-name="Ellipse 5" cx="5.729" cy="5.729" r="5.729" transform="matrix(0.053, -0.999, 0.999, 0.053, 101.322, 11.576)" fill="#6a79a8"/>
            <g id="Group_226" data-name="Group 226" transform="translate(0 19.179)">
              <ellipse id="Ellipse_6" data-name="Ellipse 6" cx="8.302" cy="11.07" rx="8.302" ry="11.07" transform="translate(0 1.468) rotate(-0.62)" fill="#ff9c81"/>
              <ellipse id="Ellipse_7" data-name="Ellipse 7" cx="8.302" cy="11.07" rx="8.302" ry="11.07" transform="matrix(1, -0.011, 0.011, 1, 119.002, 0.18)" fill="#ff9c81"/>
            </g>
          </g>
        </g>
      </g>
    </g>
    <text id="Oops_Something_Went_Wrong_" data-name="Oops!
Something Went Wrong …" transform="translate(488 1172)" fill="#ff9c81" font-size="28" font-family="Lato-Black, Lato" font-weight="800"><tspan x="0" y="0">Oops!</tspan><tspan x="0" y="45">Something Went Wrong …</tspan></text>
  </g>
</svg>
