<svg xmlns="http://www.w3.org/2000/svg" viewBox="0 0 770 580"><defs><style>.a{fill:#f7f7f7;}.b{fill:#777;opacity:0.75;}.c{fill:#f2f6fc;}</style></defs><g transform="translate(-375 -171)"><rect class="a" width="770" height="580" rx="3" transform="translate(375 171)"/><g transform="translate(702 416)"><path class="a" d="M85.295,14.462H65.311L63.464,9.355A8.885,8.885,0,0,0,55.14,3.5H43.28a8.906,8.906,0,0,0-8.266,5.715l-1.995,5.247H27.041a4.769,4.769,0,0,0-4.777-4.784H19.08a4.769,4.769,0,0,0-4.769,4.784H12.69A9.19,9.19,0,0,0,3.5,23.634V59.55a9.19,9.19,0,0,0,9.19,9.183h72.6a9.19,9.19,0,0,0,9.19-9.19V23.634A9.19,9.19,0,0,0,85.295,14.462Z" transform="translate(-2.242 -2.242)"/><path class="b" d="M83.053,67.756h-72.6A10.459,10.459,0,0,1,0,57.312V21.392A10.459,10.459,0,0,1,10.448,10.948h.5a6.038,6.038,0,0,1,5.894-4.769h3.188a6.038,6.038,0,0,1,5.894,4.769H29.91L31.581,6.53A10.168,10.168,0,0,1,41.034,0H52.894A10.143,10.143,0,0,1,62.4,6.667l1.545,4.277h19.1A10.459,10.459,0,0,1,93.493,21.392V57.308A10.459,10.459,0,0,1,83.053,67.756Zm-72.6-54.293a7.939,7.939,0,0,0-7.932,7.929V57.308a7.939,7.939,0,0,0,7.932,7.932h72.6a7.939,7.939,0,0,0,7.932-7.932V21.392a7.939,7.939,0,0,0-7.932-7.932H63.069a1.258,1.258,0,0,1-1.182-.83L60.04,7.522A7.62,7.62,0,0,0,52.9,2.516H41.037a7.637,7.637,0,0,0-7.106,4.9l-1.98,5.233a1.258,1.258,0,0,1-1.175.812H24.8a1.258,1.258,0,0,1-1.258-1.258A3.515,3.515,0,0,0,20.03,8.694H16.838a3.515,3.515,0,0,0-3.511,3.526,1.258,1.258,0,0,1-1.258,1.258Z"/><path class="c" d="M74.62,72.775A20.095,20.095,0,1,1,94.715,92.869,20.095,20.095,0,0,1,74.62,72.775Z" transform="translate(-47.801 -33.746)"/><path class="b" d="M102.4,96.253a15.782,15.782,0,1,1,15.782-15.782A15.782,15.782,0,0,1,102.4,96.253Z" transform="translate(-55.488 -41.44)"/><path class="b" d="M92.473,91.885a21.353,21.353,0,1,1,21.353-21.353A21.353,21.353,0,0,1,92.473,91.885Zm0-40.193a18.837,18.837,0,1,0,18.837,18.837A18.837,18.837,0,0,0,92.473,51.692Z" transform="translate(-45.559 -31.504)"/><path class="c" d="M97,85.786a1.258,1.258,0,0,1-1.258-1.258A10.739,10.739,0,0,1,106.465,73.8a1.258,1.258,0,0,1,0,2.516,8.22,8.22,0,0,0-8.209,8.209A1.258,1.258,0,0,1,97,85.786Z" transform="translate(-61.33 -47.275)"/><circle class="a" cx="23.502" cy="23.502" r="23.502" transform="translate(68.737 42.996)"/><path class="b" d="M244.71,157.858h0a4.227,4.227,0,0,1-4.227,4.227h-6.768v6.778a4.227,4.227,0,0,1-4.227,4.227h0a4.227,4.227,0,0,1-4.227-4.227V162.1h-6.789a4.227,4.227,0,0,1-4.223-4.237h0a4.227,4.227,0,0,1,4.223-4.219h6.778V146.86a4.23,4.23,0,0,1,4.23-4.23h0a4.227,4.227,0,0,1,4.227,4.227v6.782h6.778A4.227,4.227,0,0,1,244.71,157.858Z" transform="translate(-137.246 -91.367)"/></g></g></svg>