<svg xmlns="http://www.w3.org/2000/svg" viewBox="0 0 270 205"><defs><style>.a{fill:#f7f7f7;}.b{fill:#999;}</style></defs><g transform="translate(-1276 -94)"><rect class="a" width="270" height="205" rx="3" transform="translate(1276 94)"/><g transform="translate(1385 147.597)"><g transform="translate(0 26.403)"><g transform="translate(0 0)"><path class="b" d="M26.983,247.814a6.588,6.588,0,0,1-4.134-1.542l-7.638-6.727a3.363,3.363,0,0,0-4.345-.21L0,247.323v5.185a2.523,2.523,0,0,0,2.378,2.66c.072,0,.144,0,.215,0H41.068a2.951,2.951,0,0,0,3.083-2.663V238.914l-13.8,7.988A6.377,6.377,0,0,1,26.983,247.814Z" transform="translate(0 -210.173)"/><circle class="b" cx="3.083" cy="3.083" r="3.083" transform="translate(23.339 17.88)"/><path class="b" d="M100.322,31.88a2.593,2.593,0,0,0-1.892-1.051L60.239,26.414A2.791,2.791,0,0,0,57.086,28.8l-.631,5.466h33.5a6.026,6.026,0,0,1,5.886,5.816V64.815c0-.14.631-.28.911-.561a2.382,2.382,0,0,0,.911-1.892l3.293-28.45A2.733,2.733,0,0,0,100.322,31.88Z" transform="translate(-48.883 -26.403)"/><path class="b" d="M41.094,105.9H2.623A2.829,2.829,0,0,0,.03,108.912v19.971l9.25-6.727a6.167,6.167,0,0,1,7.778.35l7.708,6.727a3.574,3.574,0,0,0,4.134.35l15.276-8.9V108.912A3.223,3.223,0,0,0,41.094,105.9ZM26.448,122.086a5.886,5.886,0,1,1,5.886-5.886A5.886,5.886,0,0,1,26.448,122.086Z" transform="translate(-0.026 -95.236)"/></g></g></g></g></svg>