<svg xmlns="http://www.w3.org/2000/svg" viewBox="0 0 112 112.004"><defs><style>.a{fill:#777;opacity:0.75;}.b{fill:#f7f7f7;}</style></defs><g transform="translate(0 0)"><path class="a" d="M28.829,78.9l-16.71,9.115a15.016,15.016,0,0,0-2.682,1.908,55.967,55.967,0,0,0,71.909.186A14.824,14.824,0,0,0,78.4,88.139L60.507,79.193a6.824,6.824,0,0,1-3.772-6.1V66.07a27.025,27.025,0,0,0,1.693-2.177,41.172,41.172,0,0,0,5.562-11.209,5.62,5.62,0,0,0,3.986-5.347V39.844A5.594,5.594,0,0,0,66.1,35.691V24.859S68.328,8,45.5,8s-20.6,16.858-20.6,16.858V35.691a5.587,5.587,0,0,0-1.872,4.153v7.494a5.618,5.618,0,0,0,2.591,4.715A37.187,37.187,0,0,0,32.387,66.07v6.847A6.831,6.831,0,0,1,28.829,78.9Z" transform="translate(10.506 8.907)"/><g transform="translate(0 0)"><path class="b" d="M56.959.008A55.967,55.967,0,0,0,19.966,98.817a14.879,14.879,0,0,1,2.656-1.889l16.71-9.115a6.826,6.826,0,0,0,3.557-5.991V74.975a37.152,37.152,0,0,1-6.775-14.017,5.62,5.62,0,0,1-2.591-4.715V48.749A5.594,5.594,0,0,1,35.4,44.6V33.764S33.17,16.906,56,16.906,76.6,33.764,76.6,33.764V44.6a5.587,5.587,0,0,1,1.872,4.153v7.494a5.62,5.62,0,0,1-3.986,5.347A41.172,41.172,0,0,1,68.929,72.8a27.025,27.025,0,0,1-1.693,2.177V82a6.821,6.821,0,0,0,3.772,6.1L88.9,97.044a14.9,14.9,0,0,1,2.937,1.97A55.989,55.989,0,0,0,56.959.008Z" transform="translate(0 0)"/></g></g></svg>